<svg style="display:none" xmlns="http://www.w3.org/2000/svg" xmlns:xlink="http://www.w3.org/1999/xlink" version="1.1">
	<symbol id="Logo" viewBox="0 0 126 16" fill="none" xmlns="http://www.w3.org/2000/svg"><path d="M0.459999 0.999999H10.02V2.98H2.84V6.92H8.22V8.9H2.84V15H0.459999V0.999999Z" fill="#161616"/><path d="M23.6177 2.98H22.8977L18.6977 15H16.2577L21.2177 0.999999H25.2577L30.2377 15H27.7977L23.6177 2.98ZM18.9777 9.62H27.1377V11.58H18.9777V9.62Z" fill="#161616"/><path d="M40.435 11.16C40.515 11.5333 40.6683 11.8733 40.895 12.18C41.135 12.4733 41.4483 12.7067 41.835 12.88C42.235 13.0533 42.7083 13.14 43.255 13.14C44.095 13.14 44.7217 12.9467 45.135 12.56C45.5483 12.16 45.755 11.6933 45.755 11.16C45.755 10.72 45.6217 10.3533 45.355 10.06C45.1017 9.76667 44.7417 9.52 44.275 9.32C43.8083 9.10667 43.275 8.90667 42.675 8.72C42.1283 8.56 41.6017 8.39333 41.095 8.22C40.5883 8.03333 40.1283 7.80667 39.715 7.54C39.315 7.26 38.995 6.90667 38.755 6.48C38.515 6.04 38.4017 5.49333 38.415 4.84C38.415 3.98667 38.615 3.26667 39.015 2.68C39.415 2.08 39.975 1.62667 40.695 1.32C41.415 1.01333 42.2417 0.86 43.175 0.86C43.9617 0.86 44.6683 0.973333 45.295 1.2C45.935 1.41333 46.475 1.73333 46.915 2.16C47.355 2.57333 47.6817 3.08667 47.895 3.7L45.715 4.42C45.635 4.12667 45.475 3.86667 45.235 3.64C44.995 3.4 44.695 3.21333 44.335 3.08C43.9883 2.94667 43.6083 2.87333 43.195 2.86C42.7417 2.84667 42.335 2.91333 41.975 3.06C41.6283 3.20667 41.3483 3.42 41.135 3.7C40.9217 3.96667 40.815 4.28 40.815 4.64C40.815 5.05333 40.935 5.38 41.175 5.62C41.415 5.84667 41.7283 6.04 42.115 6.2C42.515 6.34667 42.955 6.5 43.435 6.66C43.995 6.82 44.5483 7.00667 45.095 7.22C45.655 7.42 46.1617 7.68 46.615 8C47.0817 8.30667 47.455 8.7 47.735 9.18C48.015 9.66 48.155 10.26 48.155 10.98C48.155 11.7533 47.975 12.4533 47.615 13.08C47.2683 13.7067 46.735 14.2067 46.015 14.58C45.295 14.9533 44.4017 15.14 43.335 15.14C42.4683 15.14 41.675 15.0133 40.955 14.76C40.2483 14.4933 39.655 14.12 39.175 13.64C38.7083 13.1467 38.4017 12.5667 38.255 11.9L40.435 11.16Z" fill="#161616"/><path d="M57.4952 0.999999H59.8752V6.92H66.4752V0.999999H68.8352V15H66.4752V8.9H59.8752V15H57.4952V0.999999Z" fill="#161616"/><path d="M78.7725 0.999999H81.1525V15H78.7725V0.999999Z" fill="#161616"/><path d="M97.485 15.14C96.4983 15.14 95.5717 14.9667 94.705 14.62C93.8383 14.2733 93.0783 13.7867 92.425 13.16C91.785 12.52 91.2783 11.7667 90.905 10.9C90.545 10.02 90.365 9.05333 90.365 8C90.365 6.96 90.545 6.00667 90.905 5.14C91.2783 4.26 91.785 3.5 92.425 2.86C93.0783 2.22 93.8383 1.72667 94.705 1.38C95.5717 1.03333 96.4983 0.86 97.485 0.86C98.4717 0.86 99.3917 1.03333 100.245 1.38C101.112 1.72667 101.865 2.22 102.505 2.86C103.158 3.5 103.665 4.26 104.025 5.14C104.398 6.00667 104.585 6.96 104.585 8C104.585 9.05333 104.398 10.02 104.025 10.9C103.665 11.7667 103.158 12.52 102.505 13.16C101.865 13.7867 101.112 14.2733 100.245 14.62C99.3917 14.9667 98.4717 15.14 97.485 15.14ZM97.485 13.12C98.3917 13.12 99.1983 12.9133 99.905 12.5C100.612 12.0733 101.165 11.48 101.565 10.72C101.965 9.94667 102.165 9.04 102.165 8C102.165 6.94667 101.965 6.04 101.565 5.28C101.165 4.52 100.612 3.93333 99.905 3.52C99.1983 3.09333 98.3917 2.88 97.485 2.88C96.5783 2.88 95.7717 3.09333 95.065 3.52C94.3583 3.93333 93.7983 4.52 93.385 5.28C92.985 6.04 92.785 6.94667 92.785 8C92.785 9.04 92.985 9.94667 93.385 10.72C93.7983 11.48 94.3583 12.0733 95.065 12.5C95.7717 12.9133 96.5783 13.12 97.485 13.12Z" fill="#161616"/><path d="M125.089 0.999999V15H122.669L116.149 4.74V15H113.769V0.999999H116.209L122.729 11.22V0.999999H125.089Z" fill="#161616"/></symbol>
	<symbol id="ChevronLeft" xmlns="http://www.w3.org/2000/svg" fill="none" viewBox="0 0 24 24" stroke="currentColor"><path stroke-linecap="round" stroke-linejoin="round" d="M15.75 19.5L8.25 12l7.5-7.5" /></symbol>
	<symbol id="ChevronRight" xmlns="http://www.w3.org/2000/svg" fill="none" viewBox="0 0 24 24" stroke="currentColor"><path stroke-linecap="round" stroke-linejoin="round" d="M8.25 4.5l7.5 7.5-7.5 7.5" /></symbol>
	<symbol id="ChevronUp" xmlns="http://www.w3.org/2000/svg" fill="none" viewBox="0 0 24 24" stroke="currentColor"><path stroke-linecap="round" stroke-linejoin="round" d="M4.5 15.75l7.5-7.5 7.5 7.5" /></symbol>	
	<symbol id="ChevronDown" xmlns="http://www.w3.org/2000/svg" fill="none" viewBox="0 0 24 24" stroke="currentColor"><path stroke-linecap="round" stroke-linejoin="round" d="M19.5 8.25l-7.5 7.5-7.5-7.5" /></symbol>
	<symbol id="QuestionMarkCircle" xmlns="http://www.w3.org/2000/svg" fill="none" viewBox="0 0 24 24" stroke="currentColor"><path stroke-linecap="round" stroke-linejoin="round" d="M9.879 7.519c1.171-1.025 3.071-1.025 4.242 0 1.172 1.025 1.172 2.687 0 3.712-.203.179-.43.326-.67.442-.745.361-1.45.999-1.45 1.827v.75M21 12a9 9 0 11-18 0 9 9 0 0118 0zm-9 5.25h.008v.008H12v-.008z" /></symbol>
	<symbol id="User" width="20" height="20" viewBox="0 0 20 20" fill="none" xmlns="http://www.w3.org/2000/svg"><path fill-rule="evenodd" clip-rule="evenodd" d="M10.0003 3.33366C8.61961 3.33366 7.50033 4.45295 7.50033 5.83366C7.50033 7.21437 8.61961 8.33366 10.0003 8.33366C11.381 8.33366 12.5003 7.21437 12.5003 5.83366C12.5003 4.45295 11.381 3.33366 10.0003 3.33366ZM5.83366 5.83366C5.83366 3.53247 7.69914 1.66699 10.0003 1.66699C12.3015 1.66699 14.167 3.53247 14.167 5.83366C14.167 8.13484 12.3015 10.0003 10.0003 10.0003C7.69914 10.0003 5.83366 8.13484 5.83366 5.83366ZM8.33366 13.3337C7.67062 13.3337 7.03473 13.597 6.56589 14.0659C6.09705 14.5347 5.83366 15.1706 5.83366 15.8337V17.5003C5.83366 17.9606 5.46056 18.3337 5.00033 18.3337C4.54009 18.3337 4.16699 17.9606 4.16699 17.5003V15.8337C4.16699 14.7286 4.60598 13.6688 5.38738 12.8874C6.16878 12.106 7.22859 11.667 8.33366 11.667H11.667C12.7721 11.667 13.8319 12.106 14.6133 12.8874C15.3947 13.6688 15.8337 14.7286 15.8337 15.8337V17.5003C15.8337 17.9606 15.4606 18.3337 15.0003 18.3337C14.5401 18.3337 14.167 17.9606 14.167 17.5003V15.8337C14.167 15.1706 13.9036 14.5347 13.4348 14.0659C12.9659 13.597 12.33 13.3337 11.667 13.3337H8.33366Z" fill="currentColor"/></symbol>
	<symbol id="ShoppingCart" width="20" height="20" viewBox="0 0 20 20" fill="none" xmlns="http://www.w3.org/2000/svg"><path d="M14.9997 5.00033H13.333C13.333 3.15866 11.8413 1.66699 9.99968 1.66699C8.15801 1.66699 6.66634 3.15866 6.66634 5.00033H4.99967C4.08301 5.00033 3.33301 5.75033 3.33301 6.66699V16.667C3.33301 17.5837 4.08301 18.3337 4.99967 18.3337H14.9997C15.9163 18.3337 16.6663 17.5837 16.6663 16.667V6.66699C16.6663 5.75033 15.9163 5.00033 14.9997 5.00033ZM9.99968 3.33366C10.9163 3.33366 11.6663 4.08366 11.6663 5.00033H8.33301C8.33301 4.08366 9.08301 3.33366 9.99968 3.33366ZM14.9997 16.667H4.99967V6.66699H6.66634V8.33366C6.66634 8.79199 7.04134 9.16699 7.49967 9.16699C7.95801 9.16699 8.33301 8.79199 8.33301 8.33366V6.66699H11.6663V8.33366C11.6663 8.79199 12.0413 9.16699 12.4997 9.16699C12.958 9.16699 13.333 8.79199 13.333 8.33366V6.66699H14.9997V16.667Z" fill="currentColor"/></symbol>
	<symbol id="Bars3" xmlns="http://www.w3.org/2000/svg" viewBox="0 0 20 20" stroke="currentColor" fill="none"><path fill-rule="evenodd" clip-rule="evenodd" d="M2.5 5.00033C2.5 4.54009 2.8731 4.16699 3.33333 4.16699H16.6667C17.1269 4.16699 17.5 4.54009 17.5 5.00033C17.5 5.46056 17.1269 5.83366 16.6667 5.83366H3.33333C2.8731 5.83366 2.5 5.46056 2.5 5.00033ZM2.5 10.0003C2.5 9.54009 2.8731 9.16699 3.33333 9.16699H16.6667C17.1269 9.16699 17.5 9.54009 17.5 10.0003C17.5 10.4606 17.1269 10.8337 16.6667 10.8337H3.33333C2.8731 10.8337 2.5 10.4606 2.5 10.0003ZM2.5 15.0003C2.5 14.5401 2.8731 14.167 3.33333 14.167H16.6667C17.1269 14.167 17.5 14.5401 17.5 15.0003C17.5 15.4606 17.1269 15.8337 16.6667 15.8337H3.33333C2.8731 15.8337 2.5 15.4606 2.5 15.0003Z" fill="currentColor"/></symbol>
	<symbol id="Heart" xmlns="http://www.w3.org/2000/svg" viewBox="0 0 24 24" stroke="currentColor"><path stroke-linecap="round" stroke-linejoin="round" d="M21 8.25c0-2.485-2.099-4.5-4.688-4.5-1.935 0-3.597 1.126-4.312 2.733-.715-1.607-2.377-2.733-4.313-2.733C5.1 3.75 3 5.765 3 8.25c0 7.22 9 12 9 12s9-4.78 9-12z" /></symbol>
	<symbol id="MagnifyingGlass" width="20" height="20" viewBox="0 0 20 20" fill="none" xmlns="http://www.w3.org/2000/svg"><path fill-rule="evenodd" clip-rule="evenodd" d="M8.33366 3.33366C5.57223 3.33366 3.33366 5.57223 3.33366 8.33366C3.33366 11.0951 5.57223 13.3337 8.33366 13.3337C11.0951 13.3337 13.3337 11.0951 13.3337 8.33366C13.3337 5.57223 11.0951 3.33366 8.33366 3.33366ZM1.66699 8.33366C1.66699 4.65176 4.65176 1.66699 8.33366 1.66699C12.0156 1.66699 15.0003 4.65176 15.0003 8.33366C15.0003 9.87425 14.4778 11.2928 13.6002 12.4217L18.0896 16.9111C18.415 17.2365 18.415 17.7641 18.0896 18.0896C17.7641 18.415 17.2365 18.415 16.9111 18.0896L12.4217 13.6002C11.2928 14.4778 9.87425 15.0003 8.33366 15.0003C4.65176 15.0003 1.66699 12.0156 1.66699 8.33366Z" fill="currentColor"/></symbol>
	<symbol id="XMark" xmlns="http://www.w3.org/2000/svg" fill="none" viewBox="0 0 24 24" stroke="currentColor"><path stroke-linecap="round" stroke-linejoin="round" d="M6 18L18 6M6 6l12 12" /></symbol>
	<symbol id="Plus" xmlns="http://www.w3.org/2000/svg" fill="none" viewBox="0 0 24 24" stroke="currentColor"><path stroke-linecap="round" stroke-linejoin="round" d="M12 4.5v15m7.5-7.5h-15" /></symbol>
	<symbol id="Minus" xmlns="http://www.w3.org/2000/svg" fill="none" viewBox="0 0 24 24" stroke="currentColor"><path stroke-linecap="round" stroke-linejoin="round" d="M19.5 12h-15" /></symbol>
	<symbol id="MapPin" xmlns="http://www.w3.org/2000/svg" fill="none" viewBox="0 0 24 24" stroke="currentColor"><path stroke-linecap="round" stroke-linejoin="round" d="M15 10.5a3 3 0 11-6 0 3 3 0 016 0z" /><path stroke-linecap="round" stroke-linejoin="round" d="M19.5 10.5c0 7.142-7.5 11.25-7.5 11.25S4.5 17.642 4.5 10.5a7.5 7.5 0 1115 0z" /></symbol>	
	<symbol id="Phone" xmlns="http://www.w3.org/2000/svg" fill="none" viewBox="0 0 24 24" stroke="currentColor"><path stroke-linecap="round" stroke-linejoin="round" d="M2.25 6.75c0 8.284 6.716 15 15 15h2.25a2.25 2.25 0 002.25-2.25v-1.372c0-.516-.351-.966-.852-1.091l-4.423-1.106c-.44-.11-.902.055-1.173.417l-.97 1.293c-.282.376-.769.542-1.21.38a12.035 12.035 0 01-7.143-7.143c-.162-.441.004-.928.38-1.21l1.293-.97c.363-.271.527-.734.417-1.173L6.963 3.102a1.125 1.125 0 00-1.091-.852H4.5A2.25 2.25 0 002.25 4.5v2.25z" /></symbol>
	<symbol id="Elo" xmlns="http://www.w3.org/2000/svg" viewBox="0 0 40 14" stroke="currentColor" fill="none"><path d="M6.57655 3.09309C6.98496 2.95495 7.4234 2.88288 7.87985 2.88288C9.87385 2.88288 11.5375 4.3003 11.9159 6.18018L14.7387 5.6036C14.0901 2.40841 11.2672 0 7.87985 0C7.10508 0 6.36033 0.126126 5.66364 0.36036L6.57655 3.09309Z" fill="currentColor"/><path d="M3.24323 12.2463L5.15314 10.0841C4.30029 9.32733 3.76576 8.22823 3.76576 6.997C3.76576 5.77178 4.30029 4.66667 5.15314 3.91592L3.24323 1.75977C1.79579 3.04505 0.882874 4.91292 0.882874 7.00301C0.882874 9.08709 1.79579 10.961 3.24323 12.2463Z" fill="currentColor"/><path d="M11.9159 7.82617C11.5315 9.70605 9.87387 11.1175 7.87988 11.1175C7.42342 11.1175 6.98498 11.0454 6.57057 10.9073L5.65765 13.64C6.35435 13.8742 7.1051 14.0003 7.87988 14.0003C11.2673 14.0003 14.0901 11.5979 14.7387 8.40275L11.9159 7.82617Z" fill="currentColor"/><path d="M24.1441 9.75962C23.6757 10.2161 23.045 10.4924 22.3484 10.4803C21.8679 10.4743 21.4234 10.3302 21.0511 10.0899L20.1141 11.5794C20.7568 11.9818 21.5075 12.2221 22.3243 12.2341C23.5075 12.2521 24.5886 11.7836 25.3754 11.0209L24.1441 9.75962ZM22.4505 3.68755C20.0961 3.65151 18.1502 5.5374 18.1141 7.89175C18.1021 8.77463 18.3544 9.60346 18.8048 10.2881L26.5405 6.97884C26.1081 5.12298 24.4505 3.72358 22.4505 3.68755ZM19.8859 8.22809C19.8739 8.13199 19.8679 8.02989 19.8679 7.92779C19.8919 6.5404 21.033 5.42929 22.4204 5.45331C23.1772 5.46532 23.8499 5.80767 24.3003 6.34821L19.8859 8.22809ZM28.973 1.76562V10.0119L30.4024 10.6065L29.7237 12.2341L28.3063 11.6455C27.988 11.5074 27.7718 11.2972 27.6096 11.0569C27.4535 10.8167 27.3333 10.4803 27.3333 10.0359V1.76562H28.973Z" fill="currentColor"/><path d="M34.1321 5.57925C34.3844 5.49516 34.6487 5.45312 34.9309 5.45312C36.1502 5.45312 37.1592 6.31798 37.3934 7.46513L39.1171 7.11078C38.7207 5.15882 36.997 3.69336 34.9309 3.69336C34.4565 3.69336 34 3.77144 33.5796 3.90958L34.1321 5.57925ZM32.0961 11.1588L33.2613 9.84351C32.7387 9.38105 32.4144 8.70837 32.4144 7.95762C32.4144 7.20687 32.7448 6.5342 33.2613 6.07774L32.0961 4.76243C31.2132 5.54321 30.6547 6.69036 30.6547 7.96363C30.6547 9.2369 31.2132 10.378 32.0961 11.1588ZM37.3934 8.46813C37.1592 9.61528 36.1442 10.4801 34.9309 10.4801C34.6547 10.4801 34.3844 10.4321 34.1321 10.348L33.5736 12.0177C34 12.1618 34.4565 12.2399 34.9309 12.2399C36.997 12.2399 38.7207 10.7744 39.1171 8.82249L37.3934 8.46813Z" fill="currentColor"/></symbol>
	<symbol id="Mastercard" xmlns="http://www.w3.org/2000/svg" viewBox="0 0 26 20" fill="none" stroke="currentColor"><g clip-path="url(#clip0_81_156)"><path d="M4.77191 19.9552V18.6263C4.77191 18.1167 4.46174 17.7846 3.95265 17.7846C3.68527 17.7846 3.39918 17.8734 3.19971 18.159C3.04463 17.9151 2.82538 17.7846 2.49116 17.7846C2.36689 17.7793 2.24323 17.8048 2.13124 17.8589C2.01926 17.913 1.92244 17.9941 1.84944 18.0948V17.8274H1.42859V19.9536H1.84944V18.737C1.84944 18.3627 2.07083 18.1836 2.381 18.1836C2.69116 18.1836 2.86816 18.383 2.86816 18.737V19.9552H3.28902V18.737C3.28902 18.3627 3.51041 18.1836 3.82057 18.1836C4.13073 18.1836 4.30773 18.383 4.30773 18.737V19.9552H4.77191ZM11.6821 17.8509H10.9067V17.2092H10.4869V17.8509H10.0441V18.2253H10.4869V19.2242C10.4869 19.7114 10.6639 19.9996 11.1954 19.9996C11.3968 19.9954 11.5941 19.9422 11.7703 19.8445L11.6371 19.4702C11.5177 19.5449 11.3791 19.5833 11.2382 19.5809C11.0168 19.5809 10.9061 19.4477 10.9061 19.2263V18.2082H11.6815V17.8536L11.6821 17.8509ZM15.6243 17.7846C15.5097 17.7821 15.3964 17.8093 15.2954 17.8637C15.1945 17.918 15.1093 17.9977 15.0484 18.0948V17.8274H14.6275V19.9536H15.0484V18.7595C15.0484 18.405 15.2254 18.1836 15.5136 18.1836C15.6109 18.1875 15.7074 18.2024 15.8013 18.2279L15.9345 17.829C15.8329 17.8034 15.729 17.7885 15.6243 17.7846ZM9.66656 18.006C9.44517 17.8509 9.13501 17.7846 8.80292 17.7846C8.27137 17.7846 7.93928 18.0285 7.93928 18.4493C7.93928 18.8039 8.18314 19.0028 8.64784 19.0697L8.86923 19.0916C9.11308 19.136 9.26816 19.2247 9.26816 19.3354C9.26816 19.4905 9.09116 19.6028 8.75854 19.6028C8.50456 19.608 8.2558 19.5303 8.04998 19.3814L7.82859 19.7135C8.13875 19.9349 8.51522 19.9809 8.73768 19.9809C9.358 19.9809 9.69009 19.6932 9.69009 19.2943C9.69009 18.9199 9.42271 18.7408 8.95907 18.6739L8.73768 18.652C8.53822 18.6301 8.36335 18.5632 8.36335 18.4306C8.36335 18.2755 8.54036 18.1632 8.78421 18.1632C9.05159 18.1632 9.31576 18.2739 9.44891 18.3402L9.66656 18.006ZM16.0896 18.8921C16.0896 19.5338 16.5104 19.9996 17.197 19.9996C17.5072 19.9996 17.7286 19.9333 17.95 19.7558L17.7286 19.4237C17.5718 19.5506 17.3768 19.6209 17.1751 19.6231C16.8008 19.6231 16.5104 19.3354 16.5104 18.9146C16.5104 18.4937 16.797 18.2082 17.1751 18.2082C17.3768 18.2104 17.5718 18.2807 17.7286 18.4076L17.95 18.0755C17.7286 17.8985 17.5072 17.8317 17.197 17.8317C16.5323 17.7873 16.0896 18.2525 16.0896 18.8948V18.8921ZM13.1216 17.7846C12.5013 17.7846 12.0805 18.2274 12.0805 18.8921C12.0805 19.5568 12.5232 19.9996 13.1655 19.9996C13.4779 20.0062 13.7831 19.9046 14.0291 19.7119L13.8077 19.4017C13.6298 19.5396 13.4125 19.6172 13.1874 19.6231C12.8997 19.6231 12.5896 19.4461 12.5457 19.0697H14.1184V18.8927C14.1184 18.2279 13.7195 17.7852 13.1216 17.7852V17.7846ZM13.0997 18.1836C13.4099 18.1836 13.6313 18.383 13.6532 18.7151H12.5019C12.5682 18.405 12.7692 18.1836 13.0997 18.1836ZM7.36335 18.8921V17.829H6.94249V18.0964C6.78741 17.8969 6.56816 17.7862 6.25586 17.7862C5.658 17.7862 5.21469 18.2515 5.21469 18.8937C5.21469 19.536 5.65747 20.0012 6.25586 20.0012C6.56602 20.0012 6.78741 19.8905 6.94249 19.691V19.9584H7.36335V18.8921ZM5.658 18.8921C5.658 18.4932 5.90185 18.1836 6.32271 18.1836C6.72164 18.1836 6.96442 18.4937 6.96442 18.8921C6.96442 19.313 6.69704 19.6007 6.32271 19.6007C5.90185 19.6226 5.658 19.2905 5.658 18.8921ZM22.0259 17.7846C21.9113 17.7821 21.798 17.8093 21.697 17.8637C21.5961 17.918 21.5109 17.9977 21.45 18.0948V17.8274H21.0291V19.9536H21.4495V18.7595C21.4495 18.405 21.6265 18.1836 21.9147 18.1836C22.012 18.1875 22.1085 18.2024 22.2024 18.2279L22.3355 17.829C22.234 17.8034 22.13 17.7885 22.0254 17.7846H22.0259ZM20.3869 18.8921V17.829H19.966V18.0964C19.8109 17.8969 19.5917 17.7862 19.2794 17.7862C18.6815 17.7862 18.2382 18.2515 18.2382 18.8937C18.2382 19.536 18.681 20.0012 19.2794 20.0012C19.5896 20.0012 19.8109 19.8905 19.966 19.691V19.9584H20.3869V18.8921ZM18.6815 18.8921C18.6815 18.4932 18.9254 18.1836 19.3462 18.1836C19.7452 18.1836 19.988 18.4937 19.988 18.8921C19.988 19.313 19.7206 19.6007 19.3462 19.6007C18.9254 19.6226 18.6815 19.2905 18.6815 18.8921ZM24.6618 18.8921V16.9873H24.2409V18.0948C24.0858 17.8953 23.8666 17.7846 23.5543 17.7846C22.9564 17.7846 22.5131 18.2499 22.5131 18.8921C22.5131 19.5344 22.9559 19.9996 23.5543 19.9996C23.8644 19.9996 24.0858 19.8889 24.2409 19.6894V19.9568H24.6618V18.8921ZM22.9564 18.8921C22.9564 18.4932 23.2003 18.1836 23.6211 18.1836C24.02 18.1836 24.2628 18.4937 24.2628 18.8921C24.2628 19.313 23.9954 19.6007 23.6211 19.6007C23.1997 19.6231 22.9559 19.291 22.9559 18.8921H22.9564Z" fill="currentColor"/><path d="M9.95478 7.97327C9.95505 6.76731 10.2281 5.57704 10.7536 4.49159C11.279 3.40613 12.0433 2.45361 12.989 1.70535C11.8128 0.780601 10.4002 0.205442 8.9126 0.045623C7.42499 -0.114196 5.92242 0.147775 4.57667 0.801588C3.23091 1.4554 2.09627 2.47468 1.30244 3.74289C0.508619 5.01111 0.0876465 6.47709 0.0876465 7.97327C0.0876465 9.46944 0.508619 10.9354 1.30244 12.2036C2.09627 13.4719 3.23091 14.4911 4.57667 15.1449C5.92242 15.7988 7.42499 16.0607 8.9126 15.9009C10.4002 15.7411 11.8128 15.1659 12.989 14.2412C12.0433 13.4929 11.279 12.5404 10.7536 11.4549C10.2281 10.3695 9.95505 9.17922 9.95478 7.97327Z" fill="currentColor"/><path d="M25.9019 7.97297C25.9029 9.46805 25.4832 10.9333 24.6907 12.201C23.8982 13.4688 22.7648 14.4879 21.4203 15.1418C20.0758 15.7957 18.5744 16.0579 17.0879 15.8986C15.6013 15.7393 14.1896 15.1648 13.0142 14.2409C13.9601 13.4928 14.7245 12.5403 15.25 11.4548C15.7755 10.3693 16.0485 9.17898 16.0485 7.97297C16.0485 6.76696 15.7755 5.5766 15.25 4.4911C14.7245 3.4056 13.9601 2.45312 13.0142 1.70506C14.1896 0.781104 15.6013 0.20662 17.0879 0.0473072C18.5744 -0.112005 20.0758 0.150287 21.4203 0.804186C22.7648 1.45808 23.8982 2.47719 24.6907 3.74493C25.4832 5.01268 25.9029 6.47789 25.9019 7.97297Z" fill="currentColor" fill-opacity="0.4"/><path fill-rule="evenodd" clip-rule="evenodd" d="M13.0141 1.70508H12.989C12.0432 2.45333 11.279 3.40585 10.7536 4.49131C10.2281 5.57677 9.95504 6.76704 9.95477 7.97299C9.95504 9.17894 10.2281 10.3692 10.7536 11.4547C11.279 12.5401 12.0433 13.4926 12.989 14.2409H13.0141C13.0141 14.2409 13.0141 14.2409 13.0141 14.2409C13.9601 13.4928 14.7245 12.5404 15.25 11.4549C15.7755 10.3694 16.0484 9.17899 16.0484 7.97299C16.0484 6.76698 15.7755 5.57661 15.25 4.49111C14.7245 3.40561 13.9601 2.45314 13.0141 1.70508Z" fill="currentColor" fill-opacity="0.6"/></g><defs><clipPath id="clip0_81_156"><rect width="25.8027" height="20" fill="white" transform="translate(0.0986328)"/></clipPath></defs></symbol>
	<symbol id="Visa" xmlns="http://www.w3.org/2000/svg" viewBox="0 0 40 12" fill="none" stroke="currentColor"><path d="M14.2514 11.8628L16.2325 0.237305H19.4012L17.4187 11.8628H14.2514Z" fill="currentColor"/><path d="M28.8667 0.488266C28.2389 0.252744 27.2552 0 26.0267 0C22.8956 0 20.6902 1.57674 20.6714 3.83653C20.6537 5.50698 22.2459 6.43886 23.4479 6.99494C24.6813 7.56486 25.0959 7.92824 25.09 8.437C25.0821 9.21631 24.105 9.57221 23.1942 9.57221C21.926 9.57221 21.2522 9.39601 20.2115 8.96208L19.8031 8.77728L19.3585 11.3797C20.0986 11.7043 21.4671 11.9854 22.8882 12C26.2191 12 28.3815 10.4413 28.4061 8.02807C28.4179 6.70556 27.5737 5.69921 25.7455 4.86948C24.638 4.33169 23.9597 3.97282 23.9669 3.42826C23.9669 2.94504 24.541 2.42833 25.7816 2.42833C26.8177 2.41223 27.5684 2.6382 28.1533 2.87372L28.4372 3.00787L28.8667 0.488266Z" fill="currentColor"/><path d="M37.0208 0.237305H34.5723C33.8138 0.237305 33.2461 0.444322 32.913 1.20137L28.2071 11.8552H31.5345C31.5345 11.8552 32.0785 10.4228 32.2015 10.1082C32.5651 10.1082 35.7976 10.1132 36.2597 10.1132C36.3545 10.5202 36.6452 11.8552 36.6452 11.8552H39.5855L37.0208 0.237305ZM33.136 7.74409C33.3981 7.07428 34.3985 4.49428 34.3985 4.49428C34.3798 4.52522 34.6587 3.82121 34.8186 3.38473L35.0328 4.38703C35.0328 4.38703 35.6395 7.16205 35.7663 7.74391H33.136V7.74409Z" fill="currentColor"/><path d="M0.45503 0.237305L0.414551 0.479138C1.66716 0.782359 2.78593 1.22123 3.76542 1.76717L6.57706 11.8441L9.92966 11.8404L14.9183 0.237305H11.5615L8.45929 8.16502L8.12885 6.55384C8.11337 6.50406 8.09654 6.4542 8.07932 6.40422L7.00087 1.21879C6.80912 0.482646 6.25282 0.262959 5.56461 0.237305H0.45503Z" fill="currentColor"/></symbol>		
	<symbol id="Pix" viewBox="0 0 512 512" xmlns="http://www.w3.org/2000/svg" fill="none" stroke="currentColor"> <defs/> <g fill="currentColor" fill-rule="evenodd"> <path d="M393.072 391.897c-20.082 0-38.969-7.81-53.176-22.02l-77.069-77.067c-5.375-5.375-14.773-5.395-20.17 0l-76.784 76.786c-14.209 14.207-33.095 22.019-53.179 22.019h-9.247l97.521 97.52c30.375 30.375 79.614 30.375 109.988 0l97.239-97.238h-15.123zm-105.049 74.327c-8.55 8.53-19.93 13.25-32.05 13.25h-.02c-12.12 0-23.522-4.721-32.05-13.25l-56.855-56.855c7.875-4.613 15.165-10.248 21.758-16.84l63.948-63.948 64.23 64.23c7.637 7.66 16.188 14.013 25.478 18.952l-54.439 54.46zM310.958 22.78c-30.374-30.374-79.613-30.374-109.988 0l-97.52 97.52h9.247c20.082 0 38.97 7.834 53.178 22.02l76.784 76.785c5.57 5.592 14.622 5.57 20.17 0l77.069-77.068c14.207-14.187 33.094-22.02 53.176-22.02h15.123l-97.239-97.237zm6.028 96.346l-64.23 64.23-63.97-63.97c-6.593-6.592-13.86-12.206-21.736-16.818l56.853-56.877c17.69-17.645 46.476-17.668 64.121 0l54.44 54.461c-9.292 4.961-17.842 11.315-25.479 18.974h.001z"/> <path d="M489.149 200.97l-58.379-58.377h-37.706c-13.838 0-27.394 5.635-37.185 15.426l-77.068 77.069c-7.202 7.18-16.623 10.77-26.067 10.77-9.443 0-18.885-3.59-26.066-10.77l-76.785-76.785c-9.792-9.814-23.346-15.427-37.207-15.427h-31.81L22.78 200.97c-30.374 30.375-30.374 79.614 0 109.988l58.095 58.074 31.81.021c13.86 0 27.416-5.635 37.208-15.426l76.784-76.764c13.925-13.947 38.208-13.924 52.133-.02l77.068 77.066c9.791 9.792 23.346 15.405 37.185 15.405h37.706l58.379-58.356c30.374-30.374 30.374-79.613 0-109.988zm-362.19 129.724c-3.763 3.786-8.942 5.917-14.273 5.917H94.302l-48.59-48.564c-17.689-17.69-17.689-46.476 0-64.143L94.3 175.296h18.385c5.331 0 10.51 2.154 14.295 5.918l74.74 74.74-74.761 74.74zm339.257-42.647l-48.848 48.87h-24.305c-5.309 0-10.508-2.155-14.251-5.92l-75.023-75.043 75.023-75.023c3.743-3.764 8.942-5.918 14.252-5.918h24.304l48.847 48.891c8.573 8.551 13.273 19.93 13.273 32.05 0 12.141-4.7 23.52-13.273 32.093z"/> </g> </symbol>
	<symbol id="Facebook" xmlns="http://www.w3.org/2000/svg" viewBox="0 0 24 24" stroke="currentColor" fill="none" stroke-linecap="round" stroke-linejoin="round"><path stroke="none" d="M0 0h24v24H0z" fill="none" /><path d="M7 10v4h3v7h4v-7h3l1 -4h-4v-2a1 1 0 0 1 1 -1h3v-4h-3a5 5 0 0 0 -5 5v2h-3" /></symbol>
	<symbol id="Instagram" xmlns="http://www.w3.org/2000/svg" viewBox="0 0 24 24" stroke="currentColor" fill="none" stroke-linecap="round" stroke-linejoin="round"><path stroke="none" d="M0 0h24v24H0z" fill="none" /><rect x="4" y="4" width="16" height="16" rx="4" /><circle cx="12" cy="12" r="3" /><line x1="16.5" y1="7.5" x2="16.5" y2="7.501" /></symbol>
	<symbol id="Tiktok" xmlns="http://www.w3.org/2000/svg" viewBox="0 0 24 24" stroke="currentColor" fill="none" stroke-linecap="round" stroke-linejoin="round"><path stroke="none" d="M0 0h24v24H0z" fill="none" /><path d="M9 12a4 4 0 1 0 4 4v-12a5 5 0 0 0 5 5" /></symbol>
	<symbol id="Truck" xmlns="http://www.w3.org/2000/svg"  viewBox="0 0 36 28" stroke="currentColor" fill="none"><path d="M14 22.333C14 24.174 12.5077 25.6663 10.6667 25.6663C8.82576 25.6663 7.33337 24.174 7.33337 22.333M14 22.333C14 20.4921 12.5077 18.9997 10.6667 18.9997C8.82576 18.9997 7.33337 20.4921 7.33337 22.333M14 22.333H24M7.33337 22.333H4.00004V15.6663M30.6667 22.333C30.6667 24.174 29.1743 25.6663 27.3334 25.6663C25.4924 25.6663 24 24.174 24 22.333M30.6667 22.333C30.6667 20.4921 29.1743 18.9997 27.3334 18.9997C25.4924 18.9997 24 20.4921 24 22.333M30.6667 22.333H34V12.333M2.33337 2.33301H20.6667V22.333M34 12.333H20.6667M34 12.333L29 3.99967H20.6667M4.00004 8.99967H10.6667" stroke-linecap="round" stroke-linejoin="round"/></symbol>
	<symbol id="Discount" xmlns="http://www.w3.org/2000/svg" viewBox="0 0 34 34" stroke="currentColor" fill="none"><path d="M12 21.9998L22 11.9998M13.6667 12.8332C13.6667 13.2934 13.2936 13.6665 12.8333 13.6665C12.3731 13.6665 12 13.2934 12 12.8332C12 12.3729 12.3731 11.9998 12.8333 11.9998C13.2936 11.9998 13.6667 12.3729 13.6667 12.8332ZM22 21.1665C22 21.6267 21.6269 21.9998 21.1667 21.9998C20.7064 21.9998 20.3333 21.6267 20.3333 21.1665C20.3333 20.7063 20.7064 20.3332 21.1667 20.3332C21.6269 20.3332 22 20.7063 22 21.1665ZM5.33334 8.99979C5.33334 8.02733 5.71965 7.0947 6.40728 6.40707C7.09491 5.71943 8.02755 5.33313 9.00001 5.33313H10.6667C11.6348 5.33257 12.5635 4.94913 13.25 4.26646L14.4167 3.09979C14.7574 2.75713 15.1625 2.4852 15.6087 2.29964C16.0549 2.11408 16.5334 2.01855 17.0167 2.01855C17.4999 2.01855 17.9784 2.11408 18.4246 2.29964C18.8708 2.4852 19.2759 2.75713 19.6167 3.09979L20.7833 4.26646C21.4699 4.94913 22.3985 5.33257 23.3667 5.33313H25.0333C26.0058 5.33313 26.9384 5.71943 27.6261 6.40707C28.3137 7.0947 28.7 8.02733 28.7 8.99979V10.6665C28.7006 11.6346 29.084 12.5633 29.7667 13.2498L30.9333 14.4165C31.276 14.7572 31.5479 15.1623 31.7335 15.6085C31.9191 16.0547 32.0146 16.5332 32.0146 17.0165C32.0146 17.4997 31.9191 17.9782 31.7335 18.4244C31.5479 18.8706 31.276 19.2757 30.9333 19.6165L29.7667 20.7831C29.084 21.4696 28.7006 22.3983 28.7 23.3665V25.0331C28.7 26.0056 28.3137 26.9382 27.6261 27.6259C26.9384 28.3135 26.0058 28.6998 25.0333 28.6998H23.3667C22.3985 28.7003 21.4699 29.0838 20.7833 29.7665L19.6167 30.9331C19.2759 31.2758 18.8708 31.5477 18.4246 31.7333C17.9784 31.9188 17.4999 32.0144 17.0167 32.0144C16.5334 32.0144 16.0549 31.9188 15.6087 31.7333C15.1625 31.5477 14.7574 31.2758 14.4167 30.9331L13.25 29.7665C12.5635 29.0838 11.6348 28.7003 10.6667 28.6998H9.00001C8.02755 28.6998 7.09491 28.3135 6.40728 27.6259C5.71965 26.9382 5.33334 26.0056 5.33334 25.0331V23.3665C5.33279 22.3983 4.94934 21.4696 4.26667 20.7831L3.10001 19.6165C2.75734 19.2757 2.48541 18.8706 2.29985 18.4244C2.11429 17.9782 2.01877 17.4997 2.01877 17.0165C2.01877 16.5332 2.11429 16.0547 2.29985 15.6085C2.48541 15.1623 2.75734 14.7572 3.10001 14.4165L4.26667 13.2498C4.94934 12.5633 5.33279 11.6346 5.33334 10.6665V8.99979Z" stroke-linecap="round" stroke-linejoin="round"/></symbol>
	<symbol id="Return" xmlns="http://www.w3.org/2000/svg" viewBox="0 0 34 30" stroke="currentColor" fill="none"><path d="M32 6.66699H2M32 6.66699L27 11.667M32 6.66699L27 1.66699M7 28.3337L2 23.3337M2 23.3337L7 18.3337M2 23.3337H32" stroke-linecap="round" stroke-linejoin="round"/></symbol>			
	<symbol id="CreditCard" xmlns="http://www.w3.org/2000/svg" viewBox="0 0 34 28" stroke="currentColor" fill="none"><path d="M2 10.6663H32M8.66667 18.9997H8.68333M15.3333 18.9997H18.6667M7 2.33301H27C29.7614 2.33301 32 4.57158 32 7.33301V20.6663C32 23.4278 29.7614 25.6663 27 25.6663H7C4.23858 25.6663 2 23.4278 2 20.6663V7.33301C2 4.57158 4.23858 2.33301 7 2.33301Z" stroke-linecap="round" stroke-linejoin="round"/></symbol>		
	<symbol id="Deco" xmlns="http://www.w3.org/2000/svg" viewBox="0 0 58 20" stroke="currentColor" fill="none"><path d="M49.5359 16.9432C47.3666 16.9432 46.9948 14.8019 47.6797 12.7178C48.2221 11.0615 49.5066 9.31991 51.4201 9.31991C53.676 9.31991 53.9039 11.6038 53.247 13.6026C52.6753 15.3162 51.3908 16.9432 49.5359 16.9432ZM48.879 19.9973C52.6473 19.9973 56.0159 17.9133 57.3578 14.1449C58.7569 10.1767 57.1859 6.2085 52.0477 6.2085C47.9369 6.2085 44.7962 8.77758 43.5969 12.1755C42.2551 16.0011 43.7115 19.9973 48.879 19.9973ZM36.3747 19.9973C37.8591 19.9973 39.3729 19.6829 40.4282 19.2271C40.8 18.1998 40.828 17.2004 40.5428 16.201C39.8006 16.4862 38.7732 16.7727 37.7165 16.7727C34.861 16.7727 34.6051 14.6606 35.2048 12.8617C35.8617 10.9496 37.574 9.40786 40.287 9.40786C41.0012 9.40786 41.6861 9.52246 42.1138 9.77963C42.856 8.78025 43.2838 7.78086 43.3704 6.7535C42.7428 6.46834 41.6861 6.21117 40.3163 6.21117C35.863 6.21117 32.3505 8.80956 31.0953 12.406C29.896 15.8039 30.8101 20 36.3774 20L36.3747 19.9973ZM21.0442 11.8037C21.8143 10.0901 23.0136 9.09206 24.5846 9.09206C25.9838 9.09206 26.2116 9.86225 25.9838 10.4619C25.6413 11.2894 24.47 11.8037 21.0442 11.8037ZM22.2714 19.9973C23.7278 19.9973 25.7826 19.7122 27.4962 18.8554C27.7813 17.9133 27.7534 16.9712 27.4389 15.9998C26.3542 16.5421 24.8405 16.8566 23.4707 16.8566C21.4439 16.8566 20.3299 16.1997 20.3592 14.5447C25.8972 14.6873 28.7807 13.6879 29.7228 11.2334C30.6649 8.7496 29.0379 6.2085 25.1829 6.2085C21.0721 6.2085 18.046 9.14935 16.932 12.3181C15.7621 15.6867 16.5043 19.9973 22.2701 19.9973H22.2714ZM5.72293 19.9973C9.52059 19.9973 11.6806 18.2557 14.1924 12.9177C15.5622 9.97684 16.7335 7.09329 18.0753 4.23905L19.6743 4.7534C20.1021 4.89598 20.3313 4.6388 20.1314 4.23905L18.1899 0.270827C18.0473 -0.0143302 17.7329 -0.0436454 17.533 0.0429678L12.708 1.86984C12.3082 2.01242 12.3362 2.38419 12.7359 2.49745L14.1631 2.95451C12.9931 5.6102 11.5367 9.60641 10.3654 12.1182C9.05155 14.9165 8.39595 16.8859 6.16933 16.8859C3.9427 16.8859 3.57093 15.1443 4.51301 12.6605C5.59768 9.77697 7.42455 8.92016 9.5086 9.51979C10.0802 8.72028 10.508 7.52103 10.6785 6.43636C10.0789 6.26447 9.36469 6.2085 8.76639 6.2085C5.3978 6.2085 2.05719 7.95009 0.687373 11.6038C-1.0822 16.3143 0.554122 19.9973 5.7216 19.9973H5.72293Z" fill="currentColor"/></symbol>
	<symbol id="Discord" xmlns="http://www.w3.org/2000/svg" viewBox="0 0 127.14 96.36" stroke="currentColor" fill="none"><g id="图层_2" data-name="图层 2"><g id="Discord_Logos" data-name="Discord Logos"><g id="Discord_Logo_-_Large_-_White" data-name="Discord Logo - Large - White"><path class="cls-1" d="M107.7,8.07A105.15,105.15,0,0,0,81.47,0a72.06,72.06,0,0,0-3.36,6.83A97.68,97.68,0,0,0,49,6.83,72.37,72.37,0,0,0,45.64,0,105.89,105.89,0,0,0,19.39,8.09C2.79,32.65-1.71,56.6.54,80.21h0A105.73,105.73,0,0,0,32.71,96.36,77.7,77.7,0,0,0,39.6,85.25a68.42,68.42,0,0,1-10.85-5.18c.91-.66,1.8-1.34,2.66-2a75.57,75.57,0,0,0,64.32,0c.87.71,1.76,1.39,2.66,2a68.68,68.68,0,0,1-10.87,5.19,77,77,0,0,0,6.89,11.1A105.25,105.25,0,0,0,126.6,80.22h0C129.24,52.84,122.09,29.11,107.7,8.07ZM42.45,65.69C36.18,65.69,31,60,31,53s5-12.74,11.43-12.74S54,46,53.89,53,48.84,65.69,42.45,65.69Zm42.24,0C78.41,65.69,73.25,60,73.25,53s5-12.74,11.44-12.74S96.23,46,96.12,53,91.08,65.69,84.69,65.69Z"/></g></g></g></symbol>
	<symbol id="FilterList" xmlns="http://www.w3.org/2000/svg" viewBox="0 0 16 16" fill="none"><path d="M6.66667 12H9.33333V10.6667H6.66667V12ZM2 4V5.33333H14V4H2ZM4 8.66667H12V7.33333H4V8.66667Z" fill="currentColor"/></symbol>
	<symbol id="ChevronUp" xmlns="http://www.w3.org/2000/svg" viewBox="0 0 16 16" stroke="currentColor" fill="none"><path fill-rule="evenodd" clip-rule="evenodd" d="M7.52851 5.52827C7.78886 5.26792 8.21097 5.26792 8.47132 5.52827L12.4713 9.52827C12.7317 9.78862 12.7317 10.2107 12.4713 10.4711C12.211 10.7314 11.7889 10.7314 11.5285 10.4711L7.99992 6.94248L4.47132 10.4711C4.21097 10.7314 3.78886 10.7314 3.52851 10.4711C3.26816 10.2107 3.26816 9.78862 3.52851 9.52827L7.52851 5.52827Z" fill="black"/></symbol>
	<symbol id="Trash" width="20" height="20" viewBox="0 0 20 20" fill="none" xmlns="http://www.w3.org/2000/svg"><path fill-rule="evenodd" clip-rule="evenodd" d="M7.15482 2.15483C7.46738 1.84227 7.89131 1.66667 8.33333 1.66667H11.6667C12.1087 1.66667 12.5326 1.84227 12.8452 2.15483C13.1577 2.46739 13.3333 2.89131 13.3333 3.33334V5H15.8236C15.8295 4.99994 15.8353 4.99994 15.8412 5H16.6667C17.1269 5 17.5 5.3731 17.5 5.83334C17.5 6.29357 17.1269 6.66667 16.6667 6.66667H16.6001L15.833 15.8715C15.8231 16.5207 15.5609 17.1413 15.1011 17.6011C14.6323 18.0699 13.9964 18.3333 13.3333 18.3333H6.66667C6.00362 18.3333 5.36774 18.0699 4.8989 17.6011C4.43906 17.1413 4.17685 16.5207 4.16696 15.8715L3.39989 6.66667H3.33333C2.8731 6.66667 2.5 6.29357 2.5 5.83334C2.5 5.3731 2.8731 5 3.33333 5H4.15878C4.16467 4.99994 4.17055 4.99994 4.17641 5H6.66667V3.33334C6.66667 2.89131 6.84226 2.46739 7.15482 2.15483ZM5.07233 6.66667L5.83045 15.7641C5.83237 15.7871 5.83333 15.8102 5.83333 15.8333C5.83333 16.0543 5.92113 16.2663 6.07741 16.4226C6.23369 16.5789 6.44565 16.6667 6.66667 16.6667H13.3333C13.5543 16.6667 13.7663 16.5789 13.9226 16.4226C14.0789 16.2663 14.1667 16.0543 14.1667 15.8333C14.1667 15.8102 14.1676 15.7871 14.1695 15.7641L14.9277 6.66667H5.07233ZM11.6667 5H8.33333V3.33334H11.6667V5ZM8.33333 8.33334C8.79357 8.33334 9.16667 8.70643 9.16667 9.16667V14.1667C9.16667 14.6269 8.79357 15 8.33333 15C7.8731 15 7.5 14.6269 7.5 14.1667V9.16667C7.5 8.70643 7.8731 8.33334 8.33333 8.33334ZM11.6667 8.33334C12.1269 8.33334 12.5 8.70643 12.5 9.16667V14.1667C12.5 14.6269 12.1269 15 11.6667 15C11.2064 15 10.8333 14.6269 10.8333 14.1667V9.16667C10.8333 8.70643 11.2064 8.33334 11.6667 8.33334Z" fill="currentColor"/></symbol>
	<symbol id="WhatsApp"  xmlns="http://www.w3.org/2000/svg" viewBox="0 0 18 18" fill="none" ><path fill-rule="evenodd" clip-rule="evenodd" d="M13.333 3.94275C12.0977 2.88909 10.5203 2.32246 8.89688 2.34921C7.27345 2.37596 5.71558 2.99425 4.51564 4.08804C3.3157 5.18184 2.55617 6.67594 2.3796 8.28996C2.20302 9.90398 2.62153 11.527 3.5566 12.8543C3.72398 13.0919 3.75547 13.3996 3.63972 13.6661L2.88341 15.408L5.56246 14.9305C5.73665 14.8995 5.9162 14.9247 6.07512 15.0025C7.53336 15.7165 9.20204 15.8737 10.768 15.4448C12.334 15.0158 13.6896 14.0301 14.5804 12.6727C15.4712 11.3152 15.836 9.67933 15.6064 8.07201C15.3767 6.46468 14.5684 4.99641 13.333 3.94275ZM8.86942 0.682773C10.8987 0.649334 12.8704 1.35761 14.4146 2.67469C15.9588 3.99177 16.9692 5.8271 17.2563 7.83626C17.5433 9.84542 17.0873 11.8903 15.9738 13.5871C14.8603 15.2839 13.1658 16.516 11.2083 17.0522C9.34061 17.5638 7.35601 17.4083 5.59455 16.6177L1.64654 17.3213C1.34428 17.3752 1.03687 17.2585 0.846507 17.0176C0.656144 16.7767 0.613663 16.4506 0.735949 16.169L1.93091 13.417C0.947723 11.8367 0.519412 9.96793 0.722814 8.1087C0.943534 6.09118 1.89294 4.22355 3.39287 2.85631C4.8928 1.48907 6.84013 0.716212 8.86942 0.682773ZM6.03312 5.61685C6.26754 5.38243 6.58548 5.25073 6.917 5.25073C7.24852 5.25073 7.56646 5.38243 7.80088 5.61685C8.03531 5.85127 8.167 6.16921 8.167 6.50073V7.33407C8.167 7.66558 8.03531 7.98353 7.80088 8.21795C7.71659 8.30224 7.62149 8.37326 7.51885 8.42964C7.68255 8.89999 7.95113 9.33224 8.30998 9.69109C8.66883 10.0499 9.10107 10.3185 9.57143 10.4822C9.62781 10.3796 9.69882 10.2845 9.78312 10.2002C10.0175 9.96576 10.3355 9.83407 10.667 9.83407H11.5003C11.8319 9.83407 12.1498 9.96576 12.3842 10.2002C12.6186 10.4346 12.7503 10.7525 12.7503 11.0841C12.7503 11.4156 12.6186 11.7335 12.3842 11.9679C12.1498 12.2024 11.8319 12.3341 11.5003 12.3341H10.667C9.34092 12.3341 8.06915 11.8073 7.13147 10.8696C6.19378 9.93192 5.667 8.66015 5.667 7.33407V6.50073C5.667 6.16921 5.79869 5.85127 6.03312 5.61685Z" fill="currentColor"/></symbol>
	<symbol id="ArrowsPointingOut" xmlns="http://www.w3.org/2000/svg" fill="none" viewBox="0 0 24 24"><path stroke-linecap="round" stroke-linejoin="round" d="M3.75 3.75v4.5m0-4.5h4.5m-4.5 0L9 9M3.75 20.25v-4.5m0 4.5h4.5m-4.5 0L9 15M20.25 3.75h-4.5m4.5 0v4.5m0-4.5L15 9m5.25 11.25h-4.5m4.5 0v-4.5m0 4.5L15 15" /></symbol>
	<symbol id="MobileBars" width="32" height="32" viewBox="0 0 32 32" fill="none" xmlns="http://www.w3.org/2000/svg">
	<path d="M3.99996 10.6667H28C28.3536 10.6667 28.6927 10.5262 28.9428 10.2761C29.1928 10.0261 29.3333 9.68696 29.3333 9.33333C29.3333 8.97971 29.1928 8.64057 28.9428 8.39052C28.6927 8.14048 28.3536 8 28 8H3.99996C3.64634 8 3.3072 8.14048 3.05715 8.39052C2.8071 8.64057 2.66663 8.97971 2.66663 9.33333C2.66663 9.68696 2.8071 10.0261 3.05715 10.2761C3.3072 10.5262 3.64634 10.6667 3.99996 10.6667ZM28 21.3333H3.99996C3.64634 21.3333 3.3072 21.4738 3.05715 21.7239C2.8071 21.9739 2.66663 22.313 2.66663 22.6667C2.66663 23.0203 2.8071 23.3594 3.05715 23.6095C3.3072 23.8595 3.64634 24 3.99996 24H28C28.3536 24 28.6927 23.8595 28.9428 23.6095C29.1928 23.3594 29.3333 23.0203 29.3333 22.6667C29.3333 22.313 29.1928 21.9739 28.9428 21.7239C28.6927 21.4738 28.3536 21.3333 28 21.3333ZM28 14.6667H3.99996C3.64634 14.6667 3.3072 14.8071 3.05715 15.0572C2.8071 15.3072 2.66663 15.6464 2.66663 16C2.66663 16.3536 2.8071 16.6928 3.05715 16.9428C3.3072 17.1929 3.64634 17.3333 3.99996 17.3333H28C28.3536 17.3333 28.6927 17.1929 28.9428 16.9428C29.1928 16.6928 29.3333 16.3536 29.3333 16C29.3333 15.6464 29.1928 15.3072 28.9428 15.0572C28.6927 14.8071 28.3536 14.6667 28 14.6667Z" fill="#1E1E1E"/>
	</symbol>
	<symbol id="Globe" width="20" height="20" viewBox="0 0 20 20" fill="none" xmlns="http://www.w3.org/2000/svg">
	<path d="M19.41 6.64C19.41 6.64 19.41 6.64 19.41 6.59C18.7054 4.66623 17.4269 3.00529 15.7475 1.83187C14.0681 0.658447 12.0688 0.0291748 10.02 0.0291748C7.97126 0.0291748 5.97195 0.658447 4.29252 1.83187C2.6131 3.00529 1.33461 4.66623 0.630012 6.59C0.630012 6.59 0.630012 6.59 0.630012 6.64C-0.156863 8.8109 -0.156863 11.1891 0.630012 13.36C0.630012 13.36 0.630012 13.36 0.630012 13.41C1.33461 15.3338 2.6131 16.9947 4.29252 18.1681C5.97195 19.3416 7.97126 19.9708 10.02 19.9708C12.0688 19.9708 14.0681 19.3416 15.7475 18.1681C17.4269 16.9947 18.7054 15.3338 19.41 13.41C19.41 13.41 19.41 13.41 19.41 13.36C20.1969 11.1891 20.1969 8.8109 19.41 6.64ZM2.26001 12C1.91324 10.6892 1.91324 9.31079 2.26001 8H4.12001C3.96004 9.32854 3.96004 10.6715 4.12001 12H2.26001ZM3.08001 14H4.48001C4.71473 14.8918 5.05022 15.7541 5.48001 16.57C4.49931 15.9019 3.67951 15.0241 3.08001 14ZM4.48001 6H3.08001C3.67088 4.97909 4.4802 4.10147 5.45001 3.43C5.03057 4.24725 4.70515 5.10942 4.48001 6ZM9.00001 17.7C7.77178 16.7987 6.90916 15.4852 6.57001 14H9.00001V17.7ZM9.00001 12H6.14001C5.9534 10.6732 5.9534 9.32681 6.14001 8H9.00001V12ZM9.00001 6H6.57001C6.90916 4.51477 7.77178 3.20132 9.00001 2.3V6ZM16.92 6H15.52C15.2853 5.10816 14.9498 4.24594 14.52 3.43C15.5007 4.09807 16.3205 4.97594 16.92 6ZM11 2.3C12.2282 3.20132 13.0909 4.51477 13.43 6H11V2.3ZM11 17.7V14H13.43C13.0909 15.4852 12.2282 16.7987 11 17.7ZM13.86 12H11V8H13.86C14.0466 9.32681 14.0466 10.6732 13.86 12ZM14.55 16.57C14.9798 15.7541 15.3153 14.8918 15.55 14H16.95C16.3505 15.0241 15.5307 15.9019 14.55 16.57ZM17.74 12H15.88C15.9613 11.3365 16.0014 10.6685 16 10C16.0011 9.33151 15.961 8.66357 15.88 8H17.74C18.0868 9.31079 18.0868 10.6892 17.74 12Z" fill="#1E1E1E"/>
	</symbol>
	<symbol id="En" width="24" height="24" viewBox="0 0 24 24" fill="none" xmlns="http://www.w3.org/2000/svg">
<g clip-path="url(#clip0_244_61)">
<g clip-path="url(#clip1_244_61)">
<path fill-rule="evenodd" clip-rule="evenodd" d="M2 4.5H22V19.5H2V4.5Z" fill="#F7FCFF"/>
<path fill-rule="evenodd" clip-rule="evenodd" d="M2 13.6667V14.9167H22V13.6667H2Z" fill="#E31D1C"/>
<path fill-rule="evenodd" clip-rule="evenodd" d="M2 15.9583V17.2083H22V15.9583H2Z" fill="#E31D1C"/>
<path fill-rule="evenodd" clip-rule="evenodd" d="M2 9.08333V10.3333H22V9.08333H2Z" fill="#E31D1C"/>
<path fill-rule="evenodd" clip-rule="evenodd" d="M2 18.25V19.5H22V18.25H2Z" fill="#E31D1C"/>
<path fill-rule="evenodd" clip-rule="evenodd" d="M2 11.375V12.625H22V11.375H2Z" fill="#E31D1C"/>
<path fill-rule="evenodd" clip-rule="evenodd" d="M2 4.5V5.75H22V4.5H2Z" fill="#E31D1C"/>
<path fill-rule="evenodd" clip-rule="evenodd" d="M2 6.79167V8.04167H22V6.79167H2Z" fill="#E31D1C"/>
<rect x="2" y="4.5" width="12.5" height="8.125" fill="#2E42A5"/>
<path fill-rule="evenodd" clip-rule="evenodd" d="M3.07626 6.33666L2.62259 6.65472L2.77575 6.08871L2.3728 5.73001H2.89911L3.07563 5.2681L3.28261 5.73001H3.73127L3.37875 6.08871L3.51522 6.65472L3.07626 6.33666ZM5.57626 6.33666L5.12259 6.65472L5.27575 6.08871L4.8728 5.73001H5.39911L5.57563 5.2681L5.78261 5.73001H6.23127L5.87875 6.08871L6.01522 6.65472L5.57626 6.33666ZM7.62259 6.65472L8.07626 6.33666L8.51522 6.65472L8.37875 6.08871L8.73127 5.73001H8.28261L8.07563 5.2681L7.89911 5.73001H7.3728L7.77575 6.08871L7.62259 6.65472ZM10.5763 6.33666L10.1226 6.65472L10.2758 6.08871L9.8728 5.73001H10.3991L10.5756 5.2681L10.7826 5.73001H11.2313L10.8787 6.08871L11.0152 6.65472L10.5763 6.33666ZM2.62259 9.15472L3.07626 8.83666L3.51522 9.15472L3.37875 8.58871L3.73127 8.23001H3.28261L3.07563 7.7681L2.89911 8.23001H2.3728L2.77575 8.58871L2.62259 9.15472ZM5.57626 8.83666L5.12259 9.15472L5.27575 8.58871L4.8728 8.23001H5.39911L5.57563 7.7681L5.78261 8.23001H6.23127L5.87875 8.58871L6.01522 9.15472L5.57626 8.83666ZM7.62259 9.15472L8.07626 8.83666L8.51522 9.15472L8.37875 8.58871L8.73127 8.23001H8.28261L8.07563 7.7681L7.89911 8.23001H7.3728L7.77575 8.58871L7.62259 9.15472ZM10.5763 8.83666L10.1226 9.15472L10.2758 8.58871L9.8728 8.23001H10.3991L10.5756 7.7681L10.7826 8.23001H11.2313L10.8787 8.58871L11.0152 9.15472L10.5763 8.83666ZM2.62259 11.6547L3.07626 11.3367L3.51522 11.6547L3.37875 11.0887L3.73127 10.73H3.28261L3.07563 10.2681L2.89911 10.73H2.3728L2.77575 11.0887L2.62259 11.6547ZM5.57626 11.3367L5.12259 11.6547L5.27575 11.0887L4.8728 10.73H5.39911L5.57563 10.2681L5.78261 10.73H6.23127L5.87875 11.0887L6.01522 11.6547L5.57626 11.3367ZM7.62259 11.6547L8.07626 11.3367L8.51522 11.6547L8.37875 11.0887L8.73127 10.73H8.28261L8.07563 10.2681L7.89911 10.73H7.3728L7.77575 11.0887L7.62259 11.6547ZM10.5763 11.3367L10.1226 11.6547L10.2758 11.0887L9.8728 10.73H10.3991L10.5756 10.2681L10.7826 10.73H11.2313L10.8787 11.0887L11.0152 11.6547L10.5763 11.3367ZM12.6226 6.65472L13.0763 6.33666L13.5152 6.65472L13.3787 6.08871L13.7313 5.73001H13.2826L13.0756 5.2681L12.8991 5.73001H12.3728L12.7758 6.08871L12.6226 6.65472ZM13.0763 8.83666L12.6226 9.15472L12.7758 8.58871L12.3728 8.23001H12.8991L13.0756 7.7681L13.2826 8.23001H13.7313L13.3787 8.58871L13.5152 9.15472L13.0763 8.83666ZM12.6226 11.6547L13.0763 11.3367L13.5152 11.6547L13.3787 11.0887L13.7313 10.73H13.2826L13.0756 10.2681L12.8991 10.73H12.3728L12.7758 11.0887L12.6226 11.6547ZM4.32626 7.58666L3.87259 7.90472L4.02575 7.33871L3.6228 6.98001H4.14911L4.32563 6.5181L4.53261 6.98001H4.98127L4.62875 7.33871L4.76522 7.90472L4.32626 7.58666ZM6.37259 7.90472L6.82626 7.58666L7.26522 7.90472L7.12875 7.33871L7.48127 6.98001H7.03261L6.82563 6.5181L6.64911 6.98001H6.1228L6.52575 7.33871L6.37259 7.90472ZM9.32626 7.58666L8.87259 7.90472L9.02575 7.33871L8.6228 6.98001H9.14911L9.32563 6.5181L9.53261 6.98001H9.98127L9.62875 7.33871L9.76522 7.90472L9.32626 7.58666ZM3.87259 10.4047L4.32626 10.0867L4.76522 10.4047L4.62875 9.83871L4.98127 9.48001H4.53261L4.32563 9.0181L4.14911 9.48001H3.6228L4.02575 9.83871L3.87259 10.4047ZM6.82626 10.0867L6.37259 10.4047L6.52575 9.83871L6.1228 9.48001H6.64911L6.82563 9.0181L7.03261 9.48001H7.48127L7.12875 9.83871L7.26522 10.4047L6.82626 10.0867ZM8.87259 10.4047L9.32626 10.0867L9.76522 10.4047L9.62875 9.83871L9.98127 9.48001H9.53261L9.32563 9.0181L9.14911 9.48001H8.6228L9.02575 9.83871L8.87259 10.4047ZM11.8263 7.58666L11.3726 7.90472L11.5258 7.33871L11.1228 6.98001H11.6491L11.8256 6.5181L12.0326 6.98001H12.4813L12.1287 7.33871L12.2652 7.90472L11.8263 7.58666ZM11.3726 10.4047L11.8263 10.0867L12.2652 10.4047L12.1287 9.83871L12.4813 9.48001H12.0326L11.8256 9.0181L11.6491 9.48001H11.1228L11.5258 9.83871L11.3726 10.4047Z" fill="#F7FCFF"/>
</g>
</g>
<defs>
<clipPath id="clip0_244_61">
<rect width="24" height="24" fill="white"/>
</clipPath>
<clipPath id="clip1_244_61">
<rect width="20" height="15" fill="white" transform="translate(2 4.5)"/>
</clipPath>
</defs>
	</symbol>

	<symbol id="Pt" width="24" height="24" viewBox="0 0 24 24" fill="none" xmlns="http://www.w3.org/2000/svg">
<g clip-path="url(#clip0_244_103)">
<g clip-path="url(#clip1_244_103)">
<path fill-rule="evenodd" clip-rule="evenodd" d="M2 4.5V19.5H22V4.5H2Z" fill="#009933"/>
<mask id="mask0_244_103" style="mask-type:luminance" maskUnits="userSpaceOnUse" x="2" y="4" width="20" height="16">
<path fill-rule="evenodd" clip-rule="evenodd" d="M2 4.5V19.5H22V4.5H2Z" fill="white"/>
</mask>
<g mask="url(#mask0_244_103)">
<g filter="url(#filter0_d_244_103)">
<path fill-rule="evenodd" clip-rule="evenodd" d="M11.9542 6.81503L19.5804 12.1297L11.8505 17.107L4.38058 12.0267L11.9542 6.81503Z" fill="#FFD221"/>
<path fill-rule="evenodd" clip-rule="evenodd" d="M11.9542 6.81503L19.5804 12.1297L11.8505 17.107L4.38058 12.0267L11.9542 6.81503Z" fill="url(#paint0_linear_244_103)"/>
</g>
<path fill-rule="evenodd" clip-rule="evenodd" d="M12 15.25C13.7259 15.25 15.125 13.8509 15.125 12.125C15.125 10.3991 13.7259 9 12 9C10.2741 9 8.875 10.3991 8.875 12.125C8.875 13.8509 10.2741 15.25 12 15.25Z" fill="#2E42A5"/>
<mask id="mask1_244_103" style="mask-type:luminance" maskUnits="userSpaceOnUse" x="8" y="9" width="8" height="7">
<path fill-rule="evenodd" clip-rule="evenodd" d="M12 15.25C13.7259 15.25 15.125 13.8509 15.125 12.125C15.125 10.3991 13.7259 9 12 9C10.2741 9 8.875 10.3991 8.875 12.125C8.875 13.8509 10.2741 15.25 12 15.25Z" fill="white"/>
</mask>
<g mask="url(#mask1_244_103)">
<path fill-rule="evenodd" clip-rule="evenodd" d="M10.9875 13.6063L10.8479 13.6796L10.8746 13.5242L10.7616 13.4141L10.9177 13.3914L10.9875 13.25L11.0573 13.3914L11.2134 13.4141L11.1004 13.5242L11.1271 13.6796L10.9875 13.6063Z" fill="#F7FCFF"/>
<path fill-rule="evenodd" clip-rule="evenodd" d="M12.2375 13.6063L12.0979 13.6796L12.1246 13.5242L12.0116 13.4141L12.1677 13.3914L12.2375 13.25L12.3073 13.3914L12.4634 13.4141L12.3504 13.5242L12.3771 13.6796L12.2375 13.6063Z" fill="#F7FCFF"/>
<path fill-rule="evenodd" clip-rule="evenodd" d="M12.2375 14.3563L12.0979 14.4296L12.1246 14.2742L12.0116 14.1641L12.1677 14.1414L12.2375 14L12.3073 14.1414L12.4634 14.1641L12.3504 14.2742L12.3771 14.4296L12.2375 14.3563Z" fill="#F7FCFF"/>
<path fill-rule="evenodd" clip-rule="evenodd" d="M11.6125 11.7312L11.4729 11.8046L11.4996 11.6492L11.3866 11.5391L11.5427 11.5164L11.6125 11.375L11.6823 11.5164L11.8384 11.5391L11.7254 11.6492L11.7521 11.8046L11.6125 11.7312Z" fill="#F7FCFF"/>
<path fill-rule="evenodd" clip-rule="evenodd" d="M11.6125 12.9813L11.4729 13.0546L11.4996 12.8992L11.3866 12.7891L11.5427 12.7664L11.6125 12.625L11.6823 12.7664L11.8384 12.7891L11.7254 12.8992L11.7521 13.0546L11.6125 12.9813Z" fill="#F7FCFF"/>
<path fill-rule="evenodd" clip-rule="evenodd" d="M10.7375 12.3562L10.5979 12.4296L10.6246 12.2742L10.5116 12.1641L10.6677 12.1414L10.7375 12L10.8073 12.1414L10.9634 12.1641L10.8504 12.2742L10.8771 12.4296L10.7375 12.3562Z" fill="#F7FCFF"/>
<path fill-rule="evenodd" clip-rule="evenodd" d="M9.8625 12.8563L9.7229 12.9296L9.74956 12.7742L9.63662 12.6641L9.7927 12.6414L9.8625 12.5L9.9323 12.6414L10.0884 12.6641L9.97544 12.7742L10.0021 12.9296L9.8625 12.8563Z" fill="#F7FCFF"/>
<path fill-rule="evenodd" clip-rule="evenodd" d="M12.7375 10.7312L12.5979 10.8046L12.6246 10.6492L12.5116 10.5391L12.6677 10.5164L12.7375 10.375L12.8073 10.5164L12.9634 10.5391L12.8504 10.6492L12.8771 10.8046L12.7375 10.7312Z" fill="#F7FCFF"/>
<path d="M8.203 11.3732L8.29699 10.1268C11.2957 10.3529 13.6625 11.3389 15.3676 13.0928L14.4714 13.9641C12.9935 12.444 10.914 11.5777 8.203 11.3732Z" fill="#F7FCFF"/>
<path d="M9.68091 11.1267L9.71311 10.8159C11.6462 11.0161 13.3043 11.7566 14.6823 13.0356L14.4697 13.2646C13.1418 12.0322 11.5472 11.3201 9.68091 11.1267Z" fill="#009933"/>
</g>
</g>
</g>
</g>
<defs>
<filter id="filter0_d_244_103" x="4.38062" y="6.81502" width="15.1998" height="10.292" filterUnits="userSpaceOnUse" color-interpolation-filters="sRGB">
<feFlood flood-opacity="0" result="BackgroundImageFix"/>
<feColorMatrix in="SourceAlpha" type="matrix" values="0 0 0 0 0 0 0 0 0 0 0 0 0 0 0 0 0 0 127 0" result="hardAlpha"/>
<feOffset/>
<feColorMatrix type="matrix" values="0 0 0 0 0.0313726 0 0 0 0 0.368627 0 0 0 0 0 0 0 0 0.28 0"/>
<feBlend mode="normal" in2="BackgroundImageFix" result="effect1_dropShadow_244_103"/>
<feBlend mode="normal" in="SourceGraphic" in2="effect1_dropShadow_244_103" result="shape"/>
</filter>
<linearGradient id="paint0_linear_244_103" x1="22" y1="19.5" x2="22" y2="4.5" gradientUnits="userSpaceOnUse">
<stop stop-color="#FFC600"/>
<stop offset="1" stop-color="#FFDE42"/>
</linearGradient>
<clipPath id="clip0_244_103">
<rect width="24" height="24" fill="white"/>
</clipPath>
<clipPath id="clip1_244_103">
<rect width="20" height="15" fill="white" transform="translate(2 4.5)"/>
</clipPath>
</defs>
	</symbol>
	<symbol id="Es" width="24" height="24" viewBox="0 0 24 24" fill="none" xmlns="http://www.w3.org/2000/svg">
<g clip-path="url(#clip0_244_128)">
<g clip-path="url(#clip1_244_128)">
<path fill-rule="evenodd" clip-rule="evenodd" d="M2 4.5V19.5H22V4.5H2Z" fill="#FFB400"/>
<mask id="mask0_244_128" style="mask-type:luminance" maskUnits="userSpaceOnUse" x="2" y="4" width="20" height="16">
<path fill-rule="evenodd" clip-rule="evenodd" d="M2 4.5V19.5H22V4.5H2Z" fill="white"/>
</mask>
<g mask="url(#mask0_244_128)">
<path fill-rule="evenodd" clip-rule="evenodd" d="M2 4.5V8.25H22V4.5H2Z" fill="#C51918"/>
<path fill-rule="evenodd" clip-rule="evenodd" d="M2 15.75V19.5H22V15.75H2Z" fill="#C51918"/>
<rect x="5.13" y="10.92" width="0.7" height="3.64" fill="#F1F9FF"/>
<path fill-rule="evenodd" clip-rule="evenodd" d="M6.10998 10.29H4.84998V10.64H5.05998V10.92H5.89998V10.64H6.10998V10.29Z" fill="#C88A02"/>
<path fill-rule="evenodd" clip-rule="evenodd" d="M5.89998 14.77H6.10998V15.12H4.84998V14.77H5.05998V14.49H5.89998V14.77Z" fill="#C88A02"/>
<path fill-rule="evenodd" clip-rule="evenodd" d="M5.47999 10.36C5.63232 10.36 5.64781 10.3026 5.73768 10.217C5.80746 10.1504 5.96999 10.0679 5.96999 9.975C5.96999 9.76237 5.75061 9.59 5.47999 9.59C5.20937 9.59 4.98999 9.76237 4.98999 9.975C4.98999 10.0785 5.10191 10.1478 5.18654 10.217C5.2757 10.2899 5.34115 10.36 5.47999 10.36Z" fill="#AD1619"/>
<path fill-rule="evenodd" clip-rule="evenodd" d="M4.84998 15.12H6.10998V15.68C6.10998 15.68 5.95248 15.61 5.79498 15.61C5.63748 15.61 5.47998 15.68 5.47998 15.68C5.47998 15.68 5.32248 15.61 5.16498 15.61C5.00748 15.61 4.84998 15.68 4.84998 15.68V15.12Z" fill="#005BBF"/>
<mask id="mask1_244_128" style="mask-type:luminance" maskUnits="userSpaceOnUse" x="4" y="15" width="3" height="1">
<path fill-rule="evenodd" clip-rule="evenodd" d="M4.84998 15.12H6.10998V15.68C6.10998 15.68 5.95248 15.61 5.79498 15.61C5.63748 15.61 5.47998 15.68 5.47998 15.68C5.47998 15.68 5.32248 15.61 5.16498 15.61C5.00748 15.61 4.84998 15.68 4.84998 15.68V15.12Z" fill="white"/>
</mask>
<g mask="url(#mask1_244_128)">
<path d="M4.83854 15.57L4.81104 15.5029C4.92452 15.4524 5.03841 15.4271 5.15248 15.4271C5.22617 15.4271 5.26465 15.4373 5.33007 15.4664C5.38753 15.492 5.41732 15.5 5.48016 15.5C5.54301 15.5 5.5728 15.492 5.63026 15.4664C5.69568 15.4373 5.73416 15.4271 5.80785 15.4271C5.92192 15.4271 6.03581 15.4524 6.14929 15.5029L6.12179 15.57C6.01682 15.5232 5.91225 15.5 5.80785 15.5C5.74501 15.5 5.71522 15.5079 5.65776 15.5335C5.59234 15.5626 5.55386 15.5729 5.48016 15.5729C5.40647 15.5729 5.36799 15.5626 5.30257 15.5335C5.24511 15.5079 5.21532 15.5 5.15248 15.5C5.04808 15.5 4.94351 15.5232 4.83854 15.57Z" fill="white"/>
<path d="M4.83854 15.36L4.81104 15.2929C4.92452 15.2424 5.03841 15.2171 5.15248 15.2171C5.22617 15.2171 5.26465 15.2273 5.33007 15.2564C5.38753 15.282 5.41732 15.29 5.48016 15.29C5.54301 15.29 5.5728 15.282 5.63026 15.2564C5.69568 15.2273 5.73416 15.2171 5.80785 15.2171C5.92192 15.2171 6.03581 15.2424 6.14929 15.2929L6.12179 15.36C6.01682 15.3132 5.91225 15.29 5.80785 15.29C5.74501 15.29 5.71522 15.2979 5.65776 15.3235C5.59234 15.3526 5.55386 15.3629 5.48016 15.3629C5.40647 15.3629 5.36799 15.3526 5.30257 15.3235C5.24511 15.2979 5.21532 15.29 5.15248 15.29C5.04808 15.29 4.94351 15.3132 4.83854 15.36Z" fill="white"/>
</g>
<rect x="11.99" y="10.92" width="0.700001" height="3.64" fill="#F1F9FF"/>
<path fill-rule="evenodd" clip-rule="evenodd" d="M12.97 10.29H11.71V10.64H11.92V10.92H12.76V10.64H12.97V10.29Z" fill="#C88A02"/>
<path fill-rule="evenodd" clip-rule="evenodd" d="M12.76 14.77H12.97V15.12H11.71V14.77H11.92V14.49H12.76V14.77Z" fill="#C88A02"/>
<path fill-rule="evenodd" clip-rule="evenodd" d="M12.34 10.36C12.4923 10.36 12.5078 10.3026 12.5977 10.217C12.6674 10.1504 12.83 10.0679 12.83 9.975C12.83 9.76237 12.6106 9.59 12.34 9.59C12.0694 9.59 11.85 9.76237 11.85 9.975C11.85 10.0785 11.9619 10.1478 12.0465 10.217C12.1357 10.2899 12.2011 10.36 12.34 10.36Z" fill="#AD1619"/>
<path fill-rule="evenodd" clip-rule="evenodd" d="M11.71 15.12H12.97V15.68C12.97 15.68 12.8125 15.61 12.655 15.61C12.4975 15.61 12.34 15.68 12.34 15.68C12.34 15.68 12.1825 15.61 12.025 15.61C11.8675 15.61 11.71 15.68 11.71 15.68V15.12Z" fill="#005BBF"/>
<mask id="mask2_244_128" style="mask-type:luminance" maskUnits="userSpaceOnUse" x="11" y="15" width="2" height="1">
<path fill-rule="evenodd" clip-rule="evenodd" d="M11.71 15.12H12.97V15.68C12.97 15.68 12.8125 15.61 12.655 15.61C12.4975 15.61 12.34 15.68 12.34 15.68C12.34 15.68 12.1825 15.61 12.025 15.61C11.8675 15.61 11.71 15.68 11.71 15.68V15.12Z" fill="white"/>
</mask>
<g mask="url(#mask2_244_128)">
<path d="M11.6985 15.57L11.671 15.5029C11.7845 15.4524 11.8984 15.4271 12.0125 15.4271C12.0862 15.4271 12.1246 15.4373 12.1901 15.4664C12.2475 15.492 12.2773 15.5 12.3401 15.5C12.403 15.5 12.4328 15.492 12.4902 15.4664C12.5557 15.4373 12.5941 15.4271 12.6678 15.4271C12.7819 15.4271 12.8958 15.4524 13.0093 15.5029L12.9818 15.57C12.8768 15.5232 12.7722 15.5 12.6678 15.5C12.605 15.5 12.5752 15.5079 12.5177 15.5335C12.4523 15.5626 12.4138 15.5729 12.3401 15.5729C12.2665 15.5729 12.228 15.5626 12.1626 15.5335C12.1051 15.5079 12.0753 15.5 12.0125 15.5C11.9081 15.5 11.8035 15.5232 11.6985 15.57Z" fill="white"/>
<path d="M11.6985 15.36L11.671 15.2929C11.7845 15.2424 11.8984 15.2171 12.0125 15.2171C12.0862 15.2171 12.1246 15.2273 12.1901 15.2564C12.2475 15.282 12.2773 15.29 12.3401 15.29C12.403 15.29 12.4328 15.282 12.4902 15.2564C12.5557 15.2273 12.5941 15.2171 12.6678 15.2171C12.7819 15.2171 12.8958 15.2424 13.0093 15.2929L12.9818 15.36C12.8768 15.3132 12.7722 15.29 12.6678 15.29C12.605 15.29 12.5752 15.2979 12.5177 15.3235C12.4523 15.3526 12.4138 15.3629 12.3401 15.3629C12.2665 15.3629 12.228 15.3526 12.1626 15.3235C12.1051 15.2979 12.0753 15.29 12.0125 15.29C11.9081 15.29 11.8035 15.3132 11.6985 15.36Z" fill="white"/>
</g>
<path fill-rule="evenodd" clip-rule="evenodd" d="M5.11747 14.3C5.24367 14.1469 5.31425 14.0078 5.31425 13.8599C5.31425 13.7667 5.28651 13.6862 5.23791 13.6204L5.24612 13.6167C5.24536 13.6171 5.38457 13.5564 5.43303 13.5331C5.52313 13.4899 5.6025 13.4442 5.67989 13.3879C5.7293 13.352 5.7955 13.3128 5.89641 13.2587L5.99116 13.2083L6.01685 13.1946C6.06589 13.1685 6.10241 13.1484 6.13635 13.1287C6.24208 13.0674 6.31195 13.0167 6.36539 12.9489C6.49196 12.7884 6.46568 12.5709 6.28831 12.4501C6.20141 12.3909 6.08415 12.357 5.91225 12.3303L5.8768 12.3248L5.6664 12.2921C5.58415 12.2792 5.51075 12.2672 5.44531 12.2557C5.87566 12.1841 6.49019 12.2105 6.7605 12.35L7.01741 11.8524C6.46657 11.568 5.21149 11.5971 4.74265 11.9199C4.39878 12.1568 4.44492 12.5147 4.80271 12.6689C4.95221 12.7333 5.1471 12.776 5.50776 12.834C5.44732 12.869 5.39721 12.9011 5.35052 12.935C5.30318 12.9694 5.25245 12.9987 5.19092 13.0282C5.16149 13.0423 5.07437 13.0806 5.03442 13.0981L5.01432 13.107C4.72289 13.2395 4.58146 13.4228 4.62372 13.7537L4.6466 13.9328L4.68764 13.9454L5.11747 14.3ZM4.75723 13.837L4.75634 13.8396L4.75702 13.8378L4.75723 13.837ZM12.4412 13.8599C12.4412 14.0078 12.5118 14.1469 12.638 14.3L13.0678 13.9454L13.1089 13.9328L13.1317 13.7537C13.174 13.4228 13.0326 13.2395 12.7411 13.107L12.7211 13.0981L12.721 13.0981C12.681 13.0805 12.594 13.0423 12.5645 13.0282C12.503 12.9987 12.4523 12.9694 12.4049 12.935C12.3583 12.9011 12.3081 12.869 12.2477 12.834C12.6084 12.776 12.8033 12.7333 12.9528 12.6689C13.3105 12.5147 13.3567 12.1568 13.0128 11.9199C12.544 11.5971 11.2889 11.568 10.7381 11.8524L10.995 12.35C11.2653 12.2105 11.8798 12.1841 12.3102 12.2557C12.2447 12.2672 12.1713 12.2792 12.0891 12.2921L11.8788 12.3247L11.8432 12.3303C11.6713 12.357 11.5541 12.3909 11.4672 12.4501C11.2898 12.5709 11.2635 12.7884 11.3901 12.9489C11.4435 13.0167 11.5134 13.0674 11.6191 13.1287C11.653 13.1484 11.6896 13.1685 11.7386 13.1946L11.7643 13.2083L11.8591 13.2587C11.96 13.3128 12.0262 13.352 12.0756 13.3879C12.153 13.4442 12.2323 13.4899 12.3224 13.5331C12.3709 13.5564 12.5101 13.6171 12.5093 13.6167L12.5176 13.6204C12.469 13.6862 12.4412 13.7667 12.4412 13.8599Z" fill="#AD1619"/>
<path d="M5.7021 12.25L5.90872 12.2928V12.6007C5.68866 12.7763 5.13 13.0722 5.13 13.0722V12.25H5.7021Z" fill="#F1F9FF"/>
<path d="M12.1966 12.25L11.99 12.2928V12.6007C12.21 12.7763 12.7687 13.0722 12.7687 13.0722V12.25H12.1966Z" fill="#F1F9FF"/>
<path fill-rule="evenodd" clip-rule="evenodd" d="M11.235 9.00374V8.90125C10.8749 8.64284 10.4979 8.51364 10.1038 8.51364C9.72606 8.34647 9.34369 8.28158 8.95671 8.31897C8.95681 8.31777 8.95687 8.31717 8.95687 8.31717C8.37501 8.26023 7.78861 8.51364 7.78861 8.51364C7.19755 8.51364 6.65747 8.90125 6.65747 8.90125V9.00374L7.36349 9.71282C7.36349 9.71282 7.56222 10.3953 8.95399 10.2349V10.2366C8.95399 10.2366 9.87546 10.2115 9.94021 10.19C9.9659 10.1814 9.99254 10.1736 10.0198 10.1657C10.2003 10.113 10.4063 10.0528 10.5289 9.71282L11.235 9.00374ZM8.95399 8.35033C8.9339 8.5864 8.81917 10.0095 8.95399 10.2301V8.35033Z" fill="#AD1619"/>
<path fill-rule="evenodd" clip-rule="evenodd" d="M7.19605 9.59349L7.19652 9.59133L6.69983 9.12403L6.7478 9.07304L7.21387 9.51154L7.2258 9.45669C7.30205 9.47326 7.35778 9.47936 7.39027 9.47591V9.38078L7.49358 9.4367C7.5444 9.4642 7.61718 9.47159 7.71303 9.456C7.78343 9.44454 7.83094 9.36278 7.84647 9.18855L7.87783 8.83682L7.98302 9.17391C8.03061 9.32645 8.10323 9.39369 8.2066 9.39369C8.30757 9.39369 8.34815 9.35668 8.35263 9.26338L8.36534 8.99877L8.485 9.23512C8.52811 9.32026 8.58757 9.3589 8.6721 9.3589C8.79301 9.3589 8.87377 9.2581 8.87377 9.09994H8.87605H9.01377H9.01605C9.01605 9.2581 9.09682 9.3589 9.21772 9.3589C9.30226 9.3589 9.36171 9.32026 9.40482 9.23512L9.52449 8.99877L9.53719 9.26338C9.54167 9.35668 9.58226 9.39369 9.68322 9.39369C9.7866 9.39369 9.85921 9.32645 9.90681 9.17391L10.012 8.83682L10.0434 9.18855C10.0589 9.36278 10.1064 9.44454 10.1768 9.456C10.2726 9.47159 10.3454 9.4642 10.3962 9.4367L10.4996 9.38078V9.47591C10.532 9.47936 10.5878 9.47326 10.664 9.45669L10.6862 9.55848L11.2021 9.07304L11.2501 9.12403L10.608 9.7281C10.5143 9.90061 10.4672 10.0145 10.4672 10.0618C10.4672 10.1339 10.2794 10.1768 9.91302 10.2208C9.62596 10.2552 9.28719 10.2784 9.01009 10.2818V10.2823L8.97496 10.2822L8.93983 10.2823V10.2818C8.66272 10.2784 8.32395 10.2552 8.0369 10.2208C7.67048 10.1768 7.48274 10.1339 7.48274 10.0618C7.48274 10.0528 7.48105 10.0415 7.47768 10.0278C7.44073 9.9808 7.41476 9.90383 7.39748 9.83439C7.38125 9.80192 7.36272 9.76646 7.34189 9.7281L7.19964 9.59426L7.19605 9.59349ZM10.637 9.60476C10.5223 9.62505 10.4395 9.623 10.3956 9.58724C10.3269 9.60723 10.2463 9.60915 10.1543 9.59418C10.056 9.57819 9.9876 9.51282 9.94642 9.40438C9.89266 9.47287 9.82469 9.51515 9.74326 9.52883C10.1912 9.59235 10.505 9.68165 10.505 9.68165C10.505 9.68165 10.4973 9.748 10.4784 9.826C10.4984 9.78516 10.5219 9.73979 10.5492 9.68971L10.556 9.68096L10.637 9.60476ZM9.53188 9.50222C9.49292 9.48286 9.46181 9.45479 9.43932 9.41862C9.40592 9.44811 9.36794 9.46968 9.32575 9.48299C9.39618 9.48838 9.46505 9.49489 9.53188 9.50222ZM9.07863 9.46937C9.02411 9.44417 8.97877 9.40382 8.94491 9.35212C8.91129 9.40346 8.86636 9.4436 8.81235 9.46883C8.84434 9.46788 8.87653 9.46721 8.90886 9.46685V9.46653L8.93693 9.46661L8.965 9.46653V9.46685C9.00311 9.46728 9.04101 9.46813 9.07863 9.46937ZM7.38885 9.67617L7.32359 9.61476C7.40193 9.62253 7.45992 9.61516 7.49421 9.58724C7.56292 9.60723 7.6435 9.60915 7.73552 9.59418C7.83379 9.57819 7.90222 9.51282 7.9434 9.40438C7.99561 9.47089 8.06121 9.51268 8.13952 9.52757C7.75331 9.58183 7.46515 9.65565 7.38885 9.67617ZM8.56104 9.48202C8.49322 9.48706 8.42682 9.49315 8.36225 9.50003C8.3992 9.48076 8.42885 9.45345 8.4505 9.41862C8.4831 9.4474 8.52006 9.46864 8.56104 9.48202ZM10.2831 10.0632C10.3322 10.0861 10.3715 10.0632 10.4026 10.0193C10.3999 10.0314 10.3982 10.0424 10.3975 10.0522C10.3934 10.0549 10.3871 10.0581 10.3789 10.0616C10.3558 10.0713 10.3206 10.0816 10.2748 10.0921C10.1847 10.1126 10.0566 10.133 9.90467 10.1513C9.60806 10.1869 9.25535 10.2103 8.97496 10.2122C8.69456 10.2103 8.34186 10.1869 8.04524 10.1513C7.89335 10.133 7.76518 10.1126 7.67514 10.0921C7.63674 10.0833 7.60579 10.0746 7.5832 10.0664L7.58619 10.0652L7.59073 10.0632C7.74365 9.9916 8.75483 9.92445 8.93693 9.91287C9.11903 9.92445 10.1302 9.9916 10.2831 10.0632ZM10.476 10.0503L10.4749 10.0516L10.4755 10.0507L10.476 10.0503Z" fill="#C88A02"/>
<path fill-rule="evenodd" clip-rule="evenodd" d="M8.94511 7.84192C9.06109 7.84192 9.15511 7.7479 9.15511 7.63192C9.15511 7.51594 9.06109 7.42192 8.94511 7.42192C8.82913 7.42192 8.73511 7.51594 8.73511 7.63192C8.73511 7.7479 8.82913 7.84192 8.94511 7.84192Z" fill="#005BBF"/>
<path fill-rule="evenodd" clip-rule="evenodd" d="M8.80857 8.873C8.81305 8.89605 8.82004 8.91751 8.82889 8.93663C8.80176 8.92627 8.76956 8.92027 8.73503 8.92027C8.63838 8.92027 8.56003 8.96728 8.56003 9.02527C8.56003 9.08325 8.63838 9.13027 8.73503 9.13027C8.83168 9.13027 8.91003 9.08325 8.91003 9.02527C8.91003 9.08325 8.98838 9.13027 9.08503 9.13027C9.18168 9.13027 9.26003 9.08325 9.26003 9.02527C9.26003 8.96728 9.18168 8.92027 9.08503 8.92027C9.0607 8.92027 9.03753 8.92325 9.01648 8.92863C9.02155 8.89992 9.02133 8.86701 9.01471 8.83293C8.99627 8.73806 8.93517 8.67012 8.87825 8.68118C8.82132 8.69225 8.79012 8.77813 8.80857 8.873ZM8.91003 9.02527L8.90995 9.02206L8.91011 9.02211L8.91003 9.02527ZM7.77889 9.00663C7.77004 8.98751 7.76305 8.96605 7.75857 8.943C7.74012 8.84813 7.77132 8.76225 7.82825 8.75118C7.88517 8.74012 7.94627 8.80806 7.96471 8.90293C7.97133 8.93701 7.97155 8.96992 7.96648 8.99863C7.98753 8.99325 8.0107 8.99026 8.03503 8.99026C8.13168 8.99026 8.21003 9.03727 8.21003 9.09526C8.21003 9.15325 8.13168 9.20026 8.03503 9.20026C7.93838 9.20026 7.86003 9.15325 7.86003 9.09526L7.86011 9.09211L7.85995 9.09206L7.86003 9.09526C7.86003 9.15325 7.78168 9.20026 7.68503 9.20026C7.58838 9.20026 7.51003 9.15325 7.51003 9.09526C7.51003 9.03727 7.58838 8.99026 7.68503 8.99026C7.71956 8.99026 7.75176 8.99627 7.77889 9.00663ZM9.97124 9.07062C9.96317 9.12804 9.87903 9.16369 9.78333 9.15024C9.68762 9.13679 9.61657 9.07933 9.62464 9.0219C9.63271 8.96448 9.71684 8.92883 9.81255 8.94228C9.84675 8.94709 9.8778 8.95751 9.90322 8.97155C9.89712 8.95138 9.89318 8.92916 9.89195 8.90571C9.88689 8.80919 9.92974 8.72849 9.98765 8.72546C10.0456 8.72242 10.0966 8.7982 10.1017 8.89472C10.1035 8.92939 10.0991 8.96201 10.0901 8.98973C10.1117 8.98733 10.1351 8.98761 10.1591 8.99099C10.2549 9.00444 10.3259 9.0619 10.3178 9.11933C10.3098 9.17675 10.2256 9.2124 10.1299 9.19895C10.0342 9.1855 9.96317 9.12804 9.97124 9.07062ZM9.97124 9.07062L9.9716 9.06743L9.97175 9.06751L9.97124 9.07062ZM10.6377 9.34827C10.7231 9.39365 10.8143 9.38892 10.8416 9.33772L10.843 9.33486C10.8514 9.34375 10.8613 9.35023 10.8727 9.3537C10.9282 9.37065 10.996 9.30947 11.0243 9.21705C11.0525 9.12462 11.0305 9.03595 10.975 9.01899C10.9196 9.00204 10.8517 9.06322 10.8235 9.15565C10.8166 9.1781 10.8127 9.20033 10.8115 9.22137C10.7924 9.19949 10.7668 9.17907 10.7363 9.16286C10.651 9.11748 10.5597 9.12221 10.5325 9.17341C10.5053 9.22461 10.5524 9.3029 10.6377 9.34827ZM7.20304 9.36972C7.1177 9.41509 7.02645 9.41037 6.99923 9.35917C6.99873 9.35822 6.99825 9.35726 6.9978 9.3563C6.98939 9.3652 6.97944 9.37167 6.96808 9.37514C6.91263 9.3921 6.84476 9.33092 6.81651 9.23849C6.78825 9.14606 6.8103 9.05739 6.86575 9.04044C6.92121 9.02348 6.98907 9.08466 7.01733 9.17709C7.0242 9.19954 7.02809 9.22178 7.02926 9.24281C7.04835 9.22093 7.07396 9.20051 7.10445 9.1843C7.18979 9.13892 7.28104 9.14365 7.30826 9.19485C7.33549 9.24605 7.28838 9.32434 7.20304 9.36972Z" fill="#C88A02"/>
<path fill-rule="evenodd" clip-rule="evenodd" d="M8.86679 7.04787H9.01262V7.14H9.10791V7.28583H9.01262V7.5775H9.10791V7.72333H8.77002V7.5775H8.86679V7.28583H8.77002V7.14H8.86679V7.04787Z" fill="#C88A02"/>
<rect x="8.83997" y="7.84" width="0.28" height="0.91" fill="#C88A02"/>
<path d="M7.71286 7.9924L7.71164 8.06239C7.09095 8.05155 6.73492 8.14213 6.64454 8.32266C6.5511 8.50931 6.56848 8.73619 6.6994 9.00571L6.63644 9.0363C6.49675 8.74874 6.47767 8.49962 6.58194 8.29133C6.68928 8.07693 7.06591 7.98111 7.71286 7.9924Z" fill="white"/>
<path d="M7.83295 8.61312L7.79706 8.67322C7.66189 8.59251 7.59424 8.45477 7.59424 8.26496C7.59424 7.99216 7.73477 7.83219 8.04561 7.72271C8.244 7.65285 8.51501 7.68149 8.85939 7.80635L8.83553 7.87216C8.50493 7.7523 8.24912 7.72526 8.06886 7.78874C7.78375 7.88915 7.66424 8.0252 7.66424 8.26496C7.66424 8.43153 7.72043 8.54593 7.83295 8.61312Z" fill="white"/>
<path d="M6.78763 8.89837L6.65554 8.94476C6.51849 8.55454 6.55763 8.28954 6.79181 8.17522C6.99816 8.07449 7.2989 8.0335 7.69553 8.04957L7.68986 8.18945C7.31434 8.17424 7.03496 8.21232 6.85322 8.30103C6.69932 8.37616 6.67117 8.56678 6.78763 8.89837Z" fill="#C88A02"/>
<path d="M8.33082 7.89919C8.01074 7.89919 7.87929 7.97714 7.8042 8.20732C7.75634 8.35401 7.80275 8.47921 7.95325 8.59608L7.86738 8.70665C7.67254 8.55535 7.60385 8.37005 7.6711 8.1639C7.7668 7.87056 7.95459 7.75919 8.33082 7.75919C8.57742 7.75919 8.76952 7.82397 8.90327 7.95582L8.92413 7.97638V8.65136H8.78413V8.03622C8.67967 7.94549 8.52962 7.89919 8.33082 7.89919Z" fill="#C88A02"/>
<path d="M10.1557 8.0624L10.1569 8.13239C10.7776 8.12155 11.1336 8.21213 11.224 8.39266C11.3174 8.57931 11.3001 8.80619 11.1691 9.07571L11.2321 9.1063C11.3718 8.81874 11.3909 8.56962 11.2866 8.36133C11.1793 8.14693 10.8026 8.05111 10.1557 8.0624Z" fill="white"/>
<path d="M9.93646 8.62767L9.97235 8.68777C10.1075 8.60707 10.1752 8.46933 10.1752 8.27952C10.1752 8.00672 10.0346 7.84675 9.7238 7.73727C9.52541 7.6674 9.2544 7.69605 8.91002 7.82091L8.93388 7.88672C9.26448 7.76686 9.52029 7.73981 9.70054 7.8033C9.98566 7.90371 10.1052 8.03976 10.1052 8.27952C10.1052 8.44609 10.049 8.56049 9.93646 8.62767Z" fill="white"/>
<path d="M11.1245 8.96837L11.2566 9.01476C11.3936 8.62454 11.3545 8.35954 11.1203 8.24522C10.9139 8.14449 10.6132 8.1035 10.2166 8.11957L10.2223 8.25945C10.5978 8.24424 10.8771 8.28232 11.0589 8.37103C11.2128 8.44616 11.2409 8.63678 11.1245 8.96837Z" fill="#C88A02"/>
<path d="M9.57335 7.91C9.89344 7.91 10.0249 7.98796 10.1 8.21814C10.1478 8.36483 10.1014 8.49003 9.95093 8.60689L10.0368 8.71747C10.2316 8.56617 10.3003 8.38087 10.2331 8.17472C10.1374 7.88138 9.94959 7.77 9.57335 7.77C9.32676 7.77 9.13466 7.83479 9.0009 7.96664L8.98005 7.9872V8.66218H9.12005V8.04704C9.22451 7.95631 9.37456 7.91 9.57335 7.91Z" fill="#C88A02"/>
<path opacity="0.3" fill-rule="evenodd" clip-rule="evenodd" d="M6.67004 10.29H11.22V14.378C11.22 14.378 10.8821 15.75 8.94504 15.75C7.00803 15.75 6.67004 14.3418 6.67004 14.3418V10.29Z" fill="#E1E5E8"/>
<mask id="mask3_244_128" style="mask-type:luminance" maskUnits="userSpaceOnUse" x="6" y="10" width="6" height="6">
<path fill-rule="evenodd" clip-rule="evenodd" d="M6.67004 10.29H11.22V14.378C11.22 14.378 10.8821 15.75 8.94504 15.75C7.00803 15.75 6.67004 14.3418 6.67004 14.3418V10.29Z" fill="white"/>
</mask>
<g mask="url(#mask3_244_128)">
<rect x="6.67004" y="12.81" width="2.31" height="2.73" fill="#FFC034"/>
<rect x="6.95007" y="12.95" width="0.28" height="2.59" fill="#AD1619"/>
<rect x="7.93005" y="12.95" width="0.28" height="2.59" fill="#AD1619"/>
<rect x="7.44006" y="12.95" width="0.28" height="2.59" fill="#AD1619"/>
<rect x="8.42004" y="12.95" width="0.28" height="2.59" fill="#AD1619"/>
<rect x="6.67004" y="10.22" width="2.31" height="2.66" fill="#AD1619"/>
<rect x="8.91003" y="12.74" width="2.31" height="2.66" fill="#AD1619"/>
<rect x="8.91003" y="10.29" width="2.45" height="2.59" fill="#F1F9FF"/>
<path fill-rule="evenodd" clip-rule="evenodd" d="M7.65003 10.5H7.86003V11.0807H8.00003V10.7904H8.21003V11.0807H8.42003V11.4437H8.21003V12.097H8.42003V12.46H7.16003V12.097H7.37003V11.4437H7.16003V11.0807H7.30003V10.7904H7.51003V11.0807H7.65003V10.5Z" fill="#C88A02"/>
<path d="M10.1118 10.6219L10.2552 10.4684L10.5561 10.7496L10.4128 10.903L10.1118 10.6219Z" fill="#C88A02"/>
<path fill-rule="evenodd" clip-rule="evenodd" d="M10.9751 14.5876V13.055H9.2251V14.5747L9.22787 14.5866C9.31646 14.964 9.61815 15.155 10.1001 15.155C10.5816 15.155 10.8832 14.969 10.9722 14.5997L10.9751 14.5876ZM10.1001 14.945C9.71341 14.945 9.50223 14.8148 9.4351 14.55V13.265H10.7651V14.5621C10.6981 14.8183 10.4869 14.945 10.1001 14.945Z" fill="#FFC034"/>
<path fill-rule="evenodd" clip-rule="evenodd" d="M10.1723 13.1831H10.0265V13.8779L9.45157 13.2526L9.34851 13.3474L9.86842 13.9128H9.39736V14.1228H9.75921H9.87987L9.34851 14.7008L9.45157 14.7955L10.0265 14.1703V14.9824H10.1723V14.2433L10.68 14.7955L10.783 14.7008L10.2517 14.1228H10.8448V13.9128H10.2631L10.783 13.3474L10.68 13.2526L10.1723 13.8048V13.1831Z" fill="#FFC034"/>
<path fill-rule="evenodd" clip-rule="evenodd" d="M10.4267 15.4017C10.4267 15.4017 8.9441 15.5183 8.9441 14.562C8.9441 14.562 8.92996 15.4017 7.38184 15.4017V16.1566H10.4267V15.4017Z" fill="#F1F9FF"/>
<path fill-rule="evenodd" clip-rule="evenodd" d="M8.94504 13.37C9.23499 13.37 9.47004 13.1193 9.47004 12.81C9.47004 12.5007 9.23499 12.25 8.94504 12.25C8.65509 12.25 8.42004 12.5007 8.42004 12.81C8.42004 13.1193 8.65509 13.37 8.94504 13.37Z" fill="#005BBF" stroke="#AD1619" stroke-width="1.45833"/>
</g>
</g>
</g>
</g>
<defs>
<clipPath id="clip0_244_128">
<rect width="24" height="24" fill="white"/>
</clipPath>
<clipPath id="clip1_244_128">
<rect width="20" height="15" fill="white" transform="translate(2 4.5)"/>
</clipPath>
</defs>
	</symbol>
</svg>
